<svg xmlns="http://www.w3.org/2000/svg" width="300" height="194" fill="none"><path d="M 142.968 106.561 C 138.083 107.308 134.509 110.43 134.986 113.532 C 135.464 116.635 139.81 118.544 144.697 117.796 C 146.653 117.524 148.516 116.788 150.129 115.65 L 170.787 112.222 L 169.409 104.073 L 148.796 106.984 C 146.915 106.38 144.917 106.235 142.968 106.561 Z" fill="rgb(255,182,182)"></path><path d="M 231.992 81.156 L 223.982 98.121 L 183.712 111.651 L 150.295 113.43 L 149.458 105.42 L 185.674 97.862 L 222.836 80.336 L 231.993 81.156 Z" fill="rgb(230,230,230)"></path><path d="M 139.527 45.689 L 140.626 45.665 L 142.726 140.877 L 141.627 140.901 Z" fill="rgb(63,61,86)"></path><path d="M 140.65 87.822 C 140.55 87.484 138.274 79.454 143.203 71.561 L 144.136 72.141 C 139.474 79.604 141.681 87.435 141.704 87.514 L 140.649 87.822 Z" fill="rgb(63,61,86)"></path><path d="M 143.589 72.171 C 143.589 72.171 142.09 61.947 155.897 59.141 C 158.562 58.599 161.252 58.182 163.956 57.891 C 166.882 57.577 168.024 61.573 165.38 62.865 C 161.552 64.735 157.951 67.091 156.074 69.881 C 150.898 77.575 143.589 72.17 143.589 72.17 Z" fill="rgb(108,99,255)"></path><path d="M 142.07 117.386 L 141.016 117.079 C 141.039 117 143.246 109.169 138.584 101.706 L 139.516 101.126 C 144.446 109.019 142.169 117.049 142.07 117.386 Z" fill="rgb(63,61,86)"></path><path d="M 139.131 101.735 C 139.131 101.735 140.63 91.512 126.823 88.706 C 124.157 88.164 121.468 87.747 118.764 87.456 C 115.838 87.141 114.696 91.138 117.34 92.43 C 121.167 94.3 124.769 96.655 126.645 99.445 C 131.822 107.14 139.131 101.735 139.131 101.735 Z M 158.347 32.445 C 161.126 31.713 163.725 30.439 163.639 29.179 C 163.536 27.681 159.678 26.677 156.349 26.525 C 158.86 24.565 161.167 21.855 160.462 20.629 C 159.813 19.502 156.796 19.939 154.012 20.931 C 155.66 18.581 156.818 15.932 155.936 15.026 C 154.837 13.897 150.938 15.845 148.276 18 C 148.795 14.644 148.533 10.407 147.024 10.024 C 145.763 9.704 143.975 12.168 142.749 14.852 C 142.207 12.035 141.11 9.361 139.844 9.361 C 138.04 9.361 136.578 14.788 136.578 18.323 C 136.578 18.523 136.584 18.711 136.592 18.891 C 136.411 18.682 136.204 18.463 135.968 18.233 C 133.426 15.77 128.507 13.036 127.25 14.327 C 126.369 15.234 127.527 17.882 129.174 20.233 C 126.39 19.241 123.373 18.804 122.725 19.93 C 121.853 21.445 125.578 25.224 128.606 27.057 C 128.424 27.035 128.233 27.017 128.029 27.002 C 124.495 26.762 118.97 27.848 118.848 29.644 C 118.762 30.904 121.36 32.179 124.139 32.91 C 121.373 33.948 118.788 35.561 119.022 36.84 C 119.307 38.391 123.65 38.933 127.065 38.615 C 124.514 41.059 121.748 45.435 122.902 46.718 C 123.748 47.658 126.475 46.685 128.937 45.205 C 127.755 47.909 127.114 50.884 128.195 51.606 C 129.626 52.561 133.548 49.238 135.616 46.378 C 135.405 49.876 136.244 54.682 137.908 54.872 C 139.166 55.015 140.56 52.482 141.418 49.745 C 142.331 52.551 143.828 55.201 145.118 55.026 C 146.796 54.797 147.526 49.871 147.213 46.37 C 149.347 49.112 152.937 52.044 154.291 51.141 C 155.373 50.418 154.732 47.443 153.55 44.739 C 156.012 46.219 158.738 47.192 159.585 46.252 C 160.739 44.97 157.973 40.593 155.421 38.15 C 158.836 38.468 163.18 37.925 163.464 36.374 C 163.699 35.096 161.114 33.483 158.347 32.444 Z M 143.383 42.34 C 142.669 42.437 142.016 42.575 141.519 42.93 C 140.991 42.408 140.22 42.249 139.363 42.151 C 138.404 42.041 137.532 42.031 136.867 42.584 C 136.624 41.908 136.025 41.429 135.328 40.964 C 134.729 40.563 134.148 40.235 133.541 40.172 C 133.493 39.431 133.022 38.802 132.446 38.161 C 132.078 37.753 131.71 37.388 131.302 37.144 C 131.891 36.429 131.823 35.524 131.641 34.532 C 131.511 33.824 131.342 33.179 130.965 32.7 C 131.464 32.15 131.588 31.374 131.647 30.516 C 131.711 29.578 131.684 28.728 131.141 28.095 C 132.543 28.272 133.22 27.401 133.849 26.309 C 134.208 25.685 134.497 25.084 134.518 24.474 C 135.255 24.377 135.853 23.865 136.454 23.247 C 136.967 22.72 137.404 22.197 137.568 21.596 C 138.156 22.089 138.959 22.164 139.844 22.164 C 140.706 22.164 141.49 22.093 142.074 21.634 C 142.527 22.042 143.16 22.254 143.859 22.432 C 144.526 22.602 145.156 22.715 145.728 22.601 C 145.937 23.077 146.308 23.51 146.733 23.946 C 147.334 24.563 147.931 25.075 148.668 25.173 C 148.69 25.782 148.979 26.383 149.338 27.007 C 149.761 27.741 150.204 28.377 150.876 28.66 C 150.798 29.087 150.806 29.556 150.84 30.05 C 150.898 30.909 151.023 31.685 151.522 32.234 C 151.144 32.713 150.975 33.358 150.846 34.067 C 150.663 35.058 150.595 35.963 151.185 36.678 C 150.777 36.922 150.409 37.287 150.041 37.696 C 149.464 38.336 148.994 38.966 148.946 39.706 C 148.339 39.77 147.758 40.098 147.158 40.498 C 146.34 41.045 145.658 41.611 145.527 42.49 C 144.913 42.193 144.177 42.232 143.383 42.34 Z" fill="rgb(108,99,255)"></path><path d="M 129.814 32.407 C 129.814 25.979 135.035 20.767 141.476 20.767 C 147.917 20.767 153.139 25.979 153.139 32.407 C 153.139 38.835 147.917 44.047 141.476 44.047 C 135.035 44.047 129.814 38.835 129.814 32.407 Z" fill="rgb(63,61,86)"></path><path d="M 1.201 173.606 C 1.201 173.998 1.492 174.313 1.854 174.313 L 288.649 174.313 C 289.012 174.313 289.303 173.998 289.303 173.606 C 289.303 173.213 289.012 172.898 288.649 172.898 L 1.854 172.898 C 1.492 172.898 1.201 173.213 1.201 173.606 Z" fill="rgb(63,61,86)"></path><path d="M 157.719 145.572 L 150.527 163.728 L 141.22 157.395 L 146.72 138.394 L 157.718 145.572 Z M 127.682 138.817 L 108.645 156.973 L 116.26 164.995 L 135.72 149.795 Z M 235.56 79.706 L 235.349 78.228 L 230.484 68.728 L 214.408 72.95 L 217.369 86.039 Z" fill="rgb(255,182,182)"></path><path d="M 228.791 143.039 L 229.286 149.381 C 229.286 149.381 231.33 175.973 214.831 178.084 C 198.332 180.195 191.14 182.306 181.41 165.839 L 166.18 138.817 L 157.285 149.381 L 145.45 140.083 C 145.45 140.083 153.912 107.15 160.68 105.884 C 161.513 105.73 162.358 105.645 163.205 105.629 C 168.809 105.512 174.091 108.248 177.444 112.73 L 196.64 138.395 L 203.62 135.228 Z M 137.412 162.884 L 141.22 155.706 L 152.219 163.306 C 152.219 163.306 154.758 172.595 150.95 173.861 C 147.143 175.128 136.566 173.439 136.566 173.439 C 136.566 173.439 117.106 177.662 116.683 173.861 C 116.26 170.06 125.567 169.217 125.567 169.217 Z" fill="rgb(47,46,65)"></path><path d="M 178.871 157.817 L 149.47 139.327 L 134.451 152.75 L 124.298 140.928 C 124.298 140.928 142.912 113.483 148.412 112.217 C 153.911 110.95 162.796 110.106 162.796 110.106 L 189.871 135.017 Z M 108.222 155.284 L 117.952 165.839 L 116.669 166.935 C 116.669 166.935 114.145 177.908 108.222 174.196 C 102.299 170.483 101.876 169.639 101.876 169.639 C 101.876 169.639 84.954 173.439 83.262 166.684 C 81.569 159.928 86.223 161.195 86.223 161.195 L 90.448 163.728 Z" fill="rgb(47,46,65)"></path><path d="M 205.947 64.083 C 205.947 56.621 212.008 50.572 219.485 50.572 C 226.961 50.572 233.022 56.621 233.022 64.083 C 233.022 71.546 226.961 77.595 219.485 77.595 C 212.008 77.595 205.947 71.546 205.947 64.083 Z" fill="rgb(255,182,182)"></path><path d="M 216.312 83.295 L 235.772 77.383 C 235.772 77.383 243.387 95.117 242.118 103.139 C 240.849 111.161 229.286 149.381 229.286 149.381 L 203.62 135.228 C 203.62 135.228 203.197 126.784 201.927 122.984 C 200.658 119.184 196.639 107.573 205.523 97.862 C 214.408 88.15 216.311 83.295 216.311 83.295 Z" fill="rgb(230,230,230)"></path><path d="M 281.584 120.226 L 282.682 120.202 L 283.863 173.759 L 282.765 173.783 Z" fill="rgb(63,61,86)"></path><path d="M 282.224 143.988 C 282.167 143.794 280.858 139.177 283.688 134.647 L 284.62 135.227 C 282.058 139.328 283.266 143.638 283.278 143.681 Z" fill="rgb(63,61,86)"></path><path d="M 284.108 135.117 C 284.108 135.117 283.266 129.366 291.032 127.788 C 292.531 127.483 294.044 127.248 295.565 127.085 C 297.211 126.908 297.853 129.156 296.366 129.883 C 294.213 130.934 292.187 132.26 291.132 133.829 C 288.22 138.157 284.108 135.117 284.108 135.117 Z" fill="rgb(108,99,255)"></path><path d="M 283.485 160.618 L 282.43 160.31 C 282.443 160.268 283.651 155.959 281.089 151.858 L 282.021 151.278 C 284.851 155.808 283.542 160.424 283.485 160.618 Z" fill="rgb(63,61,86)"></path><path d="M 281.601 151.747 C 281.601 151.747 282.443 145.996 274.677 144.418 C 273.178 144.113 271.665 143.878 270.144 143.715 C 268.498 143.538 267.856 145.786 269.343 146.513 C 271.496 147.565 273.522 148.89 274.577 150.459 C 277.489 154.787 281.601 151.747 281.601 151.747 Z M 292.41 112.771 C 293.973 112.36 295.435 111.643 295.386 110.934 C 295.329 110.092 293.158 109.527 291.286 109.441 C 292.699 108.338 293.996 106.814 293.599 106.125 C 293.235 105.491 291.537 105.736 289.972 106.295 C 290.898 104.972 291.549 103.483 291.054 102.973 C 290.435 102.337 288.242 103.434 286.745 104.646 C 287.036 102.758 286.889 100.375 286.041 100.16 C 285.331 99.979 284.325 101.365 283.636 102.875 C 283.331 101.291 282.714 99.786 282.001 99.786 C 280.987 99.786 280.165 102.839 280.165 104.828 C 280.165 104.94 280.168 105.046 280.173 105.147 C 280.071 105.029 279.954 104.906 279.821 104.777 C 278.392 103.392 275.625 101.854 274.918 102.58 C 274.422 103.09 275.073 104.58 276 105.902 C 274.434 105.344 272.737 105.098 272.372 105.732 C 271.882 106.584 273.977 108.709 275.681 109.74 C 275.573 109.727 275.465 109.717 275.356 109.71 C 273.368 109.575 270.26 110.186 270.191 111.195 C 270.143 111.905 271.605 112.622 273.168 113.033 C 271.612 113.617 270.158 114.524 270.289 115.243 C 270.45 116.116 272.893 116.421 274.814 116.242 C 273.379 117.617 271.823 120.078 272.472 120.8 C 272.948 121.329 274.482 120.782 275.866 119.949 C 275.202 121.47 274.841 123.143 275.449 123.549 C 276.254 124.086 278.46 122.217 279.623 120.609 C 279.505 122.576 279.977 125.28 280.913 125.386 C 281.62 125.467 282.405 124.042 282.887 122.502 C 283.401 124.081 284.242 125.571 284.968 125.473 C 285.912 125.345 286.323 122.574 286.147 120.605 C 287.347 122.147 289.367 123.796 290.128 123.287 C 290.737 122.881 290.376 121.208 289.711 119.687 C 291.096 120.52 292.63 121.067 293.106 120.538 C 293.755 119.816 292.2 117.355 290.764 115.98 C 292.685 116.159 295.128 115.854 295.288 114.981 C 295.42 114.262 293.966 113.355 292.41 112.771 Z M 283.993 118.337 C 283.591 118.392 283.224 118.47 282.944 118.669 C 282.647 118.375 282.213 118.286 281.731 118.231 C 281.192 118.17 280.701 118.164 280.327 118.474 C 280.19 118.095 279.854 117.825 279.462 117.563 C 279.125 117.338 278.797 117.154 278.456 117.118 C 278.429 116.701 278.165 116.347 277.84 115.987 C 277.633 115.757 277.427 115.552 277.197 115.415 C 277.528 115.012 277.49 114.503 277.388 113.945 C 277.314 113.547 277.219 113.184 277.007 112.915 C 277.288 112.605 277.358 112.169 277.391 111.686 C 277.427 111.159 277.412 110.68 277.107 110.324 C 277.895 110.424 278.276 109.934 278.629 109.319 C 278.831 108.969 278.994 108.631 279.006 108.288 C 279.421 108.233 279.757 107.945 280.094 107.597 C 280.383 107.301 280.629 107.007 280.721 106.669 C 281.052 106.946 281.503 106.989 282.001 106.989 C 282.487 106.989 282.928 106.949 283.256 106.69 C 283.511 106.92 283.867 107.039 284.261 107.139 C 284.636 107.234 284.99 107.298 285.312 107.234 C 285.429 107.502 285.638 107.745 285.877 107.99 C 286.215 108.338 286.551 108.626 286.965 108.681 C 286.978 109.023 287.14 109.362 287.342 109.712 C 287.58 110.126 287.83 110.483 288.208 110.642 C 288.164 110.882 288.168 111.147 288.187 111.424 C 288.22 111.907 288.29 112.343 288.571 112.653 C 288.359 112.922 288.264 113.285 288.19 113.683 C 288.088 114.241 288.049 114.75 288.38 115.152 C 288.151 115.29 287.944 115.495 287.738 115.725 C 287.414 116.085 287.148 116.439 287.122 116.856 C 286.78 116.892 286.453 117.076 286.116 117.301 C 285.656 117.608 285.272 117.927 285.199 118.422 C 284.853 118.255 284.44 118.276 283.993 118.337 Z" fill="rgb(108,99,255)"></path><path d="M 276.36 112.75 C 276.36 109.134 279.297 106.203 282.92 106.203 C 286.543 106.203 289.48 109.134 289.48 112.75 C 289.48 116.366 286.543 119.297 282.92 119.297 C 279.297 119.297 276.36 116.366 276.36 112.75 Z" fill="rgb(63,61,86)"></path><path d="M 173.481 171.954 C 170.313 175.741 169.704 180.441 172.119 182.452 C 174.534 184.463 179.059 183.024 182.226 179.235 C 183.512 177.739 184.421 175.957 184.875 174.039 L 198.091 157.825 L 191.654 152.625 L 178.131 168.421 C 176.32 169.211 174.726 170.423 173.481 171.954 Z" fill="rgb(255,182,182)"></path><path d="M 231.238 91.813 L 235.838 109.997 L 213.326 145.963 L 190.343 169.016 L 182.895 162.848 L 206.073 134.065 L 223.641 96.98 Z" fill="rgb(230,230,230)"></path><path d="M 207.004 61.761 C 210.476 61.753 210.674 61.776 211.235 61.761 C 215.541 61.648 216.667 59.957 218.85 60.072 C 222.746 60.278 217.604 79.772 215.466 88.784 C 213.368 97.622 220.456 105.542 220.965 106.095 C 228.159 113.903 240.796 115.331 242.964 112.006 C 244.719 109.314 238.499 105.222 240.003 99.339 C 241.472 93.589 248.259 94.201 250.156 88.784 C 252.142 83.11 245.466 80.249 241.272 66.406 C 238.863 58.456 239.289 56.974 237.041 52.05 C 231.033 38.888 201.583 44.492 204.889 56.694 C 205.529 59.055 203.827 61.769 207.004 61.761 Z" fill="rgb(47,46,65)"></path></svg>