<svg xmlns="http://www.w3.org/2000/svg" viewBox="0 0 498 498"><g fill="none" stroke-width="2"><path stroke="#909597" d="M260.34 24.52q5.9-2.69 5.8-8.89-.14-9.02-9.42-9.85-5.77-.51-14.72-.28a.67.67 0 0 0-.65.66l-.26 28.88q0 .21.21.22l6.14.05q.25 0 .25-.25l.07-8.81a.48.48 0 0 1 .49-.48l4.04.04a1.12 1.11-16.7 0 1 .93.5l5.85 8.93q.17.26.47.26h7.14a.1.1 0 0 0 .08-.15l-6.67-9.96q-.39-.58.25-.87m17.29 12.23a.3.3 0 0 0 .26.34l5.9.86a.3.3 0 0 0 .34-.26l4.15-28.99a.3.3 0 0 0-.26-.34l-5.9-.85a.3.3 0 0 0-.34.26l-4.15 28.98m-83.02-12.62a.33.33 0 0 1-.55.14l-9.29-9.3a.33.33 0 0 0-.31-.09l-6.77 1.64a.33.33 0 0 0-.15.56l15.13 14.25a.33.33 0 0 1 .09.16l2.76 10.98a.33.33 0 0 0 .4.24l5.72-1.42a.33.33 0 0 0 .24-.4l-2.81-11.18a.33.33 0 0 1 .01-.18l6.5-19.55a.33.33 0 0 0-.4-.43l-6.51 1.71a.33.33 0 0 0-.23.23l-3.83 12.64m111.41 6.93c-.75-10.81 11.86-14.61 17.49-5.14q.1.17.28.06l4.98-3.25q.27-.17.1-.45-4.02-6.58-11.86-7.75c-9.76-1.47-17.97 5.8-17.87 15.69.11 12.05 13.48 18.51 23.58 13.05q.8-.43.36-1.23l-1.97-3.56q-.57-1.04-1.61-.46c-5.78 3.24-13.02-.31-13.48-6.96m-158.9 10.53a.31.31 0 0 1 .45-.39l11.75 7.37a.31.31 0 0 0 .47-.22l2.1-13.81a.31.31 0 0 1 .59-.08l7.58 16.51a.31.31 0 0 0 .41.15l5.37-2.48a.31.31 0 0 0 .15-.41l-12.2-26.53a.31.31 0 0 0-.41-.15l-6.01 2.74a.31.31 0 0 0-.18.24l-1.77 14.09a.31.31 0 0 1-.48.23l-11.83-7.82a.31.31 0 0 0-.3-.02l-6.01 2.75a.31.31 0 0 0-.15.41l12.22 26.53a.31.31 0 0 0 .41.15l5.31-2.4a.31.31 0 0 0 .15-.41l-7.62-16.45m198.62-3.14a.35.35 0 0 1-.45-.48l5.17-10.64a.35.35 0 0 0-.17-.47l-5.31-2.57a.35.35 0 0 0-.47.17l-12.64 26.27a.35.35 0 0 0 .17.47l5.29 2.55a.35.35 0 0 0 .47-.17l3.73-7.73a.35.35 0 0 1 .19-.18l4.18-1.6a.35.35 0 0 1 .47.27l2.69 14.89a.35.35 0 0 0 .19.25l6.34 3.08a.35.35 0 0 0 .5-.38l-3.82-20.05a.35.35 0 0 1 .22-.39l15.49-5.76a.35.35 0 0 0 .03-.65l-6.45-3.05a.35.35 0 0 0-.28 0l-15.54 6.17m-222.22 32.5a.38.38 0 0 1-.53-.09l-3.15-4.51a.38.38 0 0 1 .09-.53l10.94-7.63a.38.38 0 0 0 .09-.53l-2.92-4.16a.38.38 0 0 0-.53-.09l-10.9 7.61a.38.38 0 0 1-.53-.09l-3.06-4.34a.38.38 0 0 1 .09-.53l12.51-8.73a.38.38 0 0 0 .09-.53l-2.93-4.15a.38.38 0 0 0-.53-.09L104.42 55a.38.38 0 0 0-.09.53l16.65 23.86a.38.38 0 0 0 .53.09l18.02-12.57a.38.38 0 0 0 .09-.53l-2.93-4.15a.38.38 0 0 0-.53-.09l-12.64 8.81m259.1-18.7a.38.38 0 0 1 .53-.09l12.46 8.78a.38.38 0 0 0 .53-.09l2.94-4.15a.38.38 0 0 0-.09-.53l-17.81-12.54a.38.38 0 0 0-.53.09l-16.76 23.79a.38.38 0 0 0 .09.53l17.96 12.64a.38.38 0 0 0 .53-.09l2.93-4.14a.38.38 0 0 0-.09-.53l-12.64-8.91a.38.38 0 0 1-.09-.53l3.2-4.48a.38.38 0 0 1 .53-.09l10.88 7.66a.38.38 0 0 0 .53-.09l2.93-4.14a.38.38 0 0 0-.09-.53l-10.9-7.69a.38.38 0 0 1-.09-.53l3.05-4.34" vector-effect="non-scaling-stroke"/><path stroke="#5b6345" d="M46.83 256.2q.42 14.6 2.63 29.55 1.51 10.16 4.89 19.62" vector-effect="non-scaling-stroke"/><path stroke="#909597" d="m54.35 305.37 6.3 21.09a.21.2-54.7 0 0 .4-.07q-.11-3.51.08-7.35c1.35-26.25 24.5-40.29 45.43-50.46q15.93-7.74 29.72-12.68 8.6-3.08 18.11-6.29c1.45-.48 2.96-.63 4.41-1.09q.49-.15.58-.65 2.6-13.88 3.13-27.81.06-1.61-.88-3.17c-3.47-5.74-5.04-11.15-6.25-17.68a1.5 1.49-81.1 0 0-.75-1.04c-7.22-3.99-13.25-8.98-16.66-16.42-5.89-12.85-2.95-26.36 7.95-35.42q.43-.36.38-.92c-.22-2.27-.8-4.46-.97-6.71q-.93-11.67.14-21.79 1.42-13.44 9.2-26.27 7.94-13.11 23.16-21.35 8.13-4.4 18.97-6.22 14.59-2.45 26.28.31 18.08 4.27 31.08 17.83 15.38 16.02 16.9 38.26c.54 8 .2 17.39-.84 25.49q-.14 1.14.75 1.9c9.05 7.79 12.57 19.03 8.99 30.07-2.94 9.06-9.04 17.34-18.36 20.51a.84.84 0 0 0-.56.76c-.18 6.62-3.24 12.82-5.95 19a5.21 5.18-36 0 0-.41 2.54l2.68 28.08q.04.48.51.6l7.41 1.74a1.15 1.14-75.1 0 1 .83 1.44q-5.51 18.47-11.91 35.64-9.17 24.6-19.03 50.54-5.07 13.33-9.59 25.35c-.68 1.83-1.68 3.65-2.68 5.32q-1 1.65-.99 3.93.01 34.82-.14 76.01 0 .51.51.58l10.61 1.56" vector-effect="non-scaling-stroke"/><path stroke="#6d341e" d="M232.89 450.53q21.19 2.36 41.3-.4 1.49-.21.97-1.62-4.35-11.95-6.08-24.02-2.15-14.92-1.33-30.03" vector-effect="non-scaling-stroke"/><path stroke="#713720" d="M267.75 394.46q2.13-33.49 13.61-60.44 1.95-4.6 3.62-8.67 1.86-4.55 3.82-8.64 2.16-4.49 4.08-8.69 2.19-4.78 6.04-11.41 1.66-2.85 2.12-4.42" vector-effect="non-scaling-stroke"/><path stroke="#907043" d="M301.04 292.19q1.23-2.59 1.72-3.76 1.02-2.48.11-2.9" vector-effect="non-scaling-stroke"/><path stroke="#909597" d="m302.87 285.53-1.53-20.81q-.15-2.1-.94-.15-3.47 8.67-14.02 12.17" vector-effect="non-scaling-stroke"/><path stroke="#907043" d="m286.38 276.74-3.09.74a.66.65-7.1 0 1-.81-.62l-.02-2.06" vector-effect="non-scaling-stroke"/><path stroke="#909597" d="M282.46 274.8c.67-7.87-.8-16.46-5.47-22.72q-1.97-2.64-3.94-5.29c-4.88-6.59-6.96-14.28-7.49-22.8-.31-5.08 1.23-9.45 4.68-13.19q5-5.41 12.48-10.53 13.25-9.06 27.31-15.13c8.83-3.82 19.2-6.55 28.58-4.75q2.11.4 4.17-.02 11.48-2.4 22.02-.3 2.83.57 5.65.25c6.17-.68 12.92-.65 18.46.93 13.05 3.7 26.15 11.74 37.55 19.81 6.12 4.34 15.08 11.11 15.87 18.92q1.11 11.01-4.05 21.99c-2.1 4.45-5.15 8.36-7.49 12.67-3.53 6.53-4.63 14.95-5.1 22.24a.66.66 0 0 1-.85.59q-11.46-3.55-16.1-13.53-.83-1.78-.94.18-.59 10.16-.69 21.42-.01 1.65.97 3.34 2.02 3.48 3.95 6.83 10.49 18.17 12.58 38.87 1.1 10.98.77 20.76-.05 1.51.65.17l8.4-16.06" vector-effect="non-scaling-stroke"/><path stroke="#5b6345" d="M434.43 339.45q2.82-4.99 4.13-8.13 9.3-22.25 13.02-41.57 4.97-25.79 3.55-55.64" vector-effect="non-scaling-stroke"/><path stroke="#909597" d="M455.13 234.11q-3.61-41.59-22.81-78.94-16.89-32.83-43.37-56.21-7.33-6.48-15.41-12.69-13.18-10.13-29.64-18.42-21.99-11.08-45.56-17.02-10.45-2.64-20.31-3.86c-33.28-4.13-67.7-1.12-99.04 10.8q-28.26 10.74-51.28 28.44-32.17 24.75-53.03 60.03-5.78 9.8-10.34 19.57-19.9 42.71-17.51 90.39" vector-effect="non-scaling-stroke"/><path stroke="#c9ceac" d="M455.13 234.11q.23 3.73.18 5.63-.13 6.1-1.48.15-.77-3.41-1.84-6.76-.53-1.64-.79.07c-1.36 8.9-4.61 16.88-9.12 24.63q-2.35 4.03-3.66 8.28-2.93 9.49-5.32 17.33a1.33 1.33 0 0 1-.82.87q-5.57 2.09-12 2.56a.6.59-20.3 0 0-.44.94q7.85 10.59 11.22 23.7 3.14 12.18 3.37 27.94" vector-effect="non-scaling-stroke"/><path stroke="#fedbaa" d="m282.46 274.8-9.03-4.28a.87.87 0 0 0-1.19.48l-2.93 7.83" vector-effect="non-scaling-stroke"/><path stroke="#f3bd8b" d="M269.31 278.83q-.84 2.25-1.4 3.73-6.62 17.57-13.21 35.15-.27.7-.94 1.99-.52 1-.86 2.06-1.55 4.79-2.92 8.88" vector-effect="non-scaling-stroke"/><path stroke="#e3a787" d="m249.98 330.64-14.34 37" vector-effect="non-scaling-stroke"/><path stroke="#dfa287" d="M235.64 367.64q-.93 2.53-2.02 5.18-.8 1.96-.81 3.75-.01 1.95.19 3.9" vector-effect="non-scaling-stroke"/><path stroke="#db9e85" d="m233 380.47-.11 70.06" vector-effect="non-scaling-stroke"/><path stroke="#c9ceac" d="M54.35 305.37q.38-7.14 5.33-14.21 6.69-9.56 13.6-14.94c8.92-6.95 17.84-11.74 27.45-16.94 3.67-1.98 7.6-3.5 11.48-5.19 4.47-1.95 8.74-4.32 13.58-5.93q10.97-3.63 22.46-7.57a1.7 1.7 0 0 0 1.12-1.32q1.12-6.4 2.16-13.59.45-3.07-.59-5.35-2.02-4.43-2.55-5.97" vector-effect="non-scaling-stroke"/><path stroke="#9ac7d4" d="m148.39 214.36-2-7.61q-.13-.49-.55-.78-4.9-3.42-7.98-6.33-10.02-9.49-12.39-22.51" vector-effect="non-scaling-stroke"/><path stroke="#98c1cd" d="M125.47 177.13q-2.89-12.58 1.46-23.61" vector-effect="non-scaling-stroke"/><path stroke="#9acbd9" d="M126.93 153.52q2.67-6.84 7.64-12.25.96-1.04.58-2.39-.64-2.33-.73-5.38-.23-8.8.39-17.44" vector-effect="non-scaling-stroke"/><path stroke="#9ac7d4" d="M134.81 116.06q1.57-12.92 8.1-24.33a.5.49 19.9 0 0-.35-.73q-.62-.1-1.18.31-20.93 15.6-37.04 34.54-2.39 2.81-5.88 7.57c-3.46 4.72-7.33 9.36-10.34 14.21q-2.13 3.43-4.14 6.86" vector-effect="non-scaling-stroke"/><path stroke="#9acbd9" d="M83.98 154.49q-1.12 2.13-2.34 4.13-1.33 2.19-1.99 4.3-.79 2.52-2.41 4.88-1.35 1.96-2.25 4.52-.74 2.12-1.82 4.26-3.93 7.79-6.2 16.28" vector-effect="non-scaling-stroke"/><path stroke="#9ac7d4" d="M66.97 192.86q-5.47 16.45-8.53 33.81" vector-effect="non-scaling-stroke"/><path stroke="#98c1cd" d="m58.44 226.67-1.22 4.12" vector-effect="non-scaling-stroke"/><path stroke="#c9ceac" d="M57.22 230.79q-3.59 8.07-7.17 16.23-.69 1.58-1.53 4.59-.66 2.35-1.69 4.59" vector-effect="non-scaling-stroke"/><path stroke="#de7d32" d="M301.04 292.19q-4.81-.64-10.56-3.82" vector-effect="non-scaling-stroke"/><path stroke="#f39836" d="M290.48 288.37q-7.27-4.01-14.64-7.94-4.44-2.38-6.53-1.6" vector-effect="non-scaling-stroke"/><path stroke="#348ca8" d="M126.93 153.52q-.32-.41-.3-1.01.01-.32.06 0 .05.36-.33.61-.14.09-.25-.05-.09-.12-.24-.17-.32-.1-.57.14-7.33 6.92-15.3 13.88c-4.07 3.56-7.52 7.42-11.05 11.3-2.21 2.43-4.48 5.96-7.2 8.64" vector-effect="non-scaling-stroke"/><path stroke="#3692af" d="M91.75 186.86q-.49-.23-.84-.22-.28.01-.64.44-.55.67-1.33 1.03-.49.23-.21-.23.08-.13-.13-.27-.3-.18-.52.09-.21.23-.21.55.01.78-.61.29-.75-.6-1.77-.84-.43-.11-1.94.07-1.27.16-2.43-.56-.47-.29-.88.08l-1.26 1.11a.1.09 62.7 0 1-.15-.05q-.06-.18-.25-.17-.34 0-.52.29-.48.78-1.38 1.41-.45.33-1.01.23-.48-.08-.72.32-.26.45-.77.41-2.47-.21-4.67 1.12-.28.17-.21-.15.12-.52-.34-.83-.46-.32-.43.24l.03.87q.02.56-.5.77-.45.17-1.09 0" vector-effect="non-scaling-stroke"/><path stroke="#3388a3" d="M125.47 177.13q-2.48 2.04-4.89 4.32-2.54 2.4-4.96 4.33-3.59 2.85-7.24 5.51-3.78 2.75-7.38 5.94-8.08 7.16-18.73 18.49-8.38 8.93-12.25 15.36-.69 1.14-1.72 1.98-1.06.85-1.85 2.07-1.55 2.38-2.89 4.9-1.31 2.45-3.04 4.77-1.26 1.69-2.59 3.47-.98 1.32-1.22 3.5-.68 5.97-.62 11.93" vector-effect="non-scaling-stroke"/><path stroke="#628f7b" d="M56.09 263.7q0-7.3.01-14.62 0-3.76.54-9.13.45-4.61.58-9.16" vector-effect="non-scaling-stroke"/><path stroke="#3388a3" d="M58.44 226.67q1.96-2.73 2.03-6.49a.02.02 0 0 1 .03-.01q.12.23.24.2.27-.06.29-.34.2-2.72 1.27-5.77.14-.39.48-.15 1.31.93 3.46.56 1.67-.28 2.58-1.81 1.9-3.21 4.15-6.01a1.74 1.7 7.8 0 1 .7-.52q4.56-1.84 7.15-5.23c.92-1.19 1.18-2.58 2.28-3.75q4.67-4.96 8.65-10.49" vector-effect="non-scaling-stroke"/><path stroke="#d45f13" d="M290.48 288.37q-4.06-.33-8.1-.55c-2.62-.14-4.86-.93-7.32-1.57q-2.63-.69-.79 1.31 6.87 7.46 7.19 16.81.13 3.75-.84 5.68-2.05 4.1-7.04 10.14" vector-effect="non-scaling-stroke"/><path stroke="#d86514" d="M273.58 320.19q-6.3 4.8-9.57 5.9-7.17 2.44-14.03 4.55" vector-effect="non-scaling-stroke"/><path stroke="#3692af" d="M134.81 116.06q-5.51 2.14-9.82 6.38c-2.67 2.63-5.08 4.13-7.95 6.03q-.37.24-.72.67-.3.38-.69.73-5.38 4.77-11.01 9.82-2.01 1.79-4.78 5.06-2.39 2.82-4.84 4.98-2.11 1.86-4.26 4.46-1.79 2.16-4.65 4.54-.12.1-.27.14-.2.04-.39.09-.45.11-.65.52-.43.86-1.45.59a.55.54 9.5 0 0-.69.49q-.04.59-.65.59-.83-.01-.32-.67l1.06-1.37q.29-.38.4-.85l.85-3.77" vector-effect="non-scaling-stroke"/><path stroke="#bb410d" d="M267.75 394.46q-11.04-.56-20.3-5.98c-5.29-3.09-8.15-6.57-11.48-11.4q-.9-1.31-.58-2.97.07-.39-.2-.67-.54-.57-1.47 1.64a.8.62-38 0 0-.05.2l-.67 5.19" vector-effect="non-scaling-stroke"/><path stroke="#c44a10" d="M235.64 367.64q.03.44 1.5.54.73.05.27.62-.51.63-.32 1.47a.66.65-22 0 0 .98.41c3.76-2.31 7.23-4.71 10.15-8.25q10.15-12.33 17.41-27.43 1.26-2.63 2.35-4.06 1.48-1.94 2.21-3.97.5-1.42 1-3 .59-1.87 2.39-3.78" vector-effect="non-scaling-stroke"/><path stroke="#649582" d="M148.39 214.36q-1.7 1.09-4.02 1.72-3.32.9-4.14 1.2-9.73 3.61-19.19 7.53-5.83 2.41-15.36 7.83-18.99 10.79-34.28 23.99-6.85 5.91-12.56 13.54a.98.98 0 0 1-1.75-.43l-1-6.04" vector-effect="non-scaling-stroke"/><path stroke="#fedbaa" d="m302.87 285.53-16.49-8.79" vector-effect="non-scaling-stroke"/><path stroke="#909597" d="M412.13 75.49a.39.39 0 0 1 .01.55l-16.08 16.54a.39.39 0 0 0 .01.55l4.19 4.01a.39.39 0 0 0 .55-.01l16.05-16.49a.39.39 0 0 1 .55-.01l5.91 5.81a.39.39 0 0 0 .55-.01l3.69-3.76a.39.39 0 0 0-.01-.55L410.4 65.37a.39.39 0 0 0-.55.01l-3.7 3.83a.39.39 0 0 0 .01.55l5.97 5.73m-311.55 7.26q2.28-5.83-2.09-10.33c-5.77-5.96-11.78-2.74-16.78 2.33q-4.2 4.27-7.8 7.64a.34.34 0 0 0-.01.49l20.23 20.68q.44.44.89 0l3.79-3.72q.45-.44.01-.88l-5.79-5.94q-.46-.47.01-.93l2.82-2.77q.39-.38.91-.27l10.55 2.22a.42.41 27.6 0 0 .39-.12l5.09-5.01a.14.14 0 0 0-.07-.24l-11.7-2.33q-.71-.14-.45-.82" vector-effect="non-scaling-stroke"/><path stroke="#753d20" d="M159.5 106.74q-.42.52-.45.75-1.28 10.11-.82 21.1a.59.59 0 0 0 .95.44c3.2-2.48 6.13-5.01 9.64-6.99q9.42-5.32 19.73-8.13 6.92-1.88 15.61-2.05 9.62-.19 16.27.88 9.72 1.56 18.12 4.94 9.95 4.01 18.59 11.44a.6.59-70.5 0 0 .98-.47c-.09-5.1.28-10.33-.48-15.47q-.47-3.23-.92-6.12" vector-effect="non-scaling-stroke"/><path stroke="#909597" d="M256.72 107.06q-8.21-22.84-28.92-30.9-17.17-6.69-34.32-1.58c-10.07 3-20.74 9.07-26.76 17.92q-4.53 6.66-7.22 14.24" vector-effect="non-scaling-stroke"/><path stroke="#e3a787" d="M256.72 107.06q-1.02.24-1.4-1.76-.24-1.22-.71-2-1.98-3.23-4.11-6.37" vector-effect="non-scaling-stroke"/><path stroke="#f3bd8b" d="M250.5 96.93c-10.99-14.01-27.98-20.7-45.51-20.31q-4.65.1-10.49 1.82c-11.08 3.27-21.07 8.97-28.09 18.05" vector-effect="non-scaling-stroke"/><path stroke="#e3a787" d="m166.41 96.49-6.72 10.52q-.08.12-.13-.01-.05-.12-.06-.26" vector-effect="non-scaling-stroke"/><path stroke="#d86514" d="M250.5 96.93q-.6-.15-.83-.01a.68.64-23.5 0 0-.3.71q1.54 6.37 2.92 12.12.19.79-.19 1.71a.66.66 0 0 1-.99.28q-8.43-6.08-17.85-10.09-5.46-2.31-11.21-3.82" vector-effect="non-scaling-stroke"/><path stroke="#f3bd8b" d="M222.05 97.83q.61-10.03-9.1-14.5-3.7-1.7-7.22-1.08-7.68 1.34-10.99 8.73-1.81 4.04-1.16 7.85" vector-effect="non-scaling-stroke"/><path stroke="#d86514" d="M193.58 98.83q-5.48.97-8.34 2.26-11 4.96-19.99 10.7-1.72 1.1-1.09-.84.62-1.92.84-4.05.58-5.58 3.08-10.13.12-.22-.01-.43-.09-.14-.23-.24a.36.36 0 0 0-.5.08q-.55.71-.93.31" vector-effect="non-scaling-stroke"/><path stroke="#e3a787" d="M222.05 97.83c-3.28 16.83-23.7 16.55-28.47 1" vector-effect="non-scaling-stroke"/><path stroke="#909597" d="M436.63 102.56a.39.39 0 0 1-.08.54l-18.42 13.84a.39.39 0 0 0-.07.55l3.5 4.63a.39.39 0 0 0 .54.08l18.39-13.83a.39.39 0 0 1 .54.08l5 6.64a.39.39 0 0 0 .55.07l4.19-3.17a.39.39 0 0 0 .08-.54L436.5 92.32a.39.39 0 0 0-.54-.08l-4.24 3.12a.39.39 0 0 0-.08.55l4.99 6.65M63.71 114.43a.38.38 0 0 1-.53.09l-4.27-3.14a.38.38 0 0 1-.08-.53l9.01-12.26a.38.38 0 0 0-.09-.53l-4.09-3.01a.38.38 0 0 0-.53.08l-12.87 17.53a.38.38 0 0 0 .08.53l23.46 17.2a.38.38 0 0 0 .53-.09l13-17.72a.38.38 0 0 0-.09-.53l-4.11-3.02a.38.38 0 0 0-.53.09l-9.11 12.46a.38.38 0 0 1-.53.09l-4.45-3.26a.38.38 0 0 1-.08-.53l7.87-10.72a.38.38 0 0 0-.09-.53l-4.1-3.02a.38.38 0 0 0-.53.08l-7.87 10.74" vector-effect="non-scaling-stroke"/><path stroke="#2d353c" d="M167.96 137.71q-3.67 2.51-5.35 5.97-1.47 3.04 1.08.82 1.82-1.58 4.08-2.73 2.06-1.05 4-2.47 10.61-7.77 24-11.11c10.24-2.56 20.16-1.39 29.95 1.71 3.02.95 5.78 2.34 8.62 3.67q3.39 1.58 6.2 3.52 4.38 3.02 8.48 6.05 4.72 3.48 1.38-1.33c-2.34-3.36-5.93-6.19-9.15-9.01-2.3-2.02-5.13-3.49-7.64-5.42q-1.56-1.2-5.52-1.86" vector-effect="non-scaling-stroke"/><path stroke="#909597" d="M228.09 125.52q-7.83-3.75-10.83-4.31-18.62-3.51-35.02 4.47-8.01 3.9-14.28 12.03" vector-effect="non-scaling-stroke"/><path stroke="#9ba0a3" d="M228.09 125.52q-25.74-6.36-48.61 4.93-5.39 2.67-11.52 7.26" vector-effect="non-scaling-stroke"/><path stroke="#909597" d="M446.75 147.89a2.59 2.58 58.5 0 1-3.03-.73q-3.69-4.54-2.2-11.17.04-.17-.13-.2l-5.62-1.19q-.28-.06-.33.22-1.7 9.32 3.87 15.99 3.87 4.66 9.02 3.29c9.36-2.49 6.33-11.01 4.92-17.71q-.35-1.7.79-2.86a2.35 2.34 42.1 0 1 3.15-.15c2.57 2.14 3.07 6.33 2.63 9.42q-.1.72.62.8l4.76.5q.61.07.68-.55.9-8.06-3.78-13.5-4.01-4.68-9.48-2.97c-12.58 3.92-.31 18.38-5.87 20.81M59.62 136.61c-5.72-3.45-11.99-6.35-17.86-9.52q-.45-.24-.68.2l-2.7 5.08q-.25.47.21.71 8.71 4.49 16.94 8.9c5.57 2.98 1.58 7.98-2.74 8.97a.28.27 73.2 0 0-.19.37l1.99 5.18q.1.28.39.21c9.16-2.2 13.89-14.52 4.64-20.1" vector-effect="non-scaling-stroke"/><path stroke="#866b58" d="M160.16 169.74q.77 3.44 2.92 15.26 1.76 9.72 7.3 19.67 1.85 3.31 4.69 6.72.42.51.46-.15.2-3.5.04-7.23-.25-5.79 3.24-10.54" vector-effect="non-scaling-stroke"/><path stroke="#8f7a67" d="M178.81 193.47q9.53-4.23 21.69-2.73c10.61 1.3 21.86-1.53 31.98.57q2.04.42 5.24 2.79" vector-effect="non-scaling-stroke"/><path stroke="#866b58" d="M237.72 194.1q2.99 3.34 3.24 7.9.23 4.26.09 8.17-.08 2.29 1.28.44c5.09-6.96 8.59-15.22 10.41-24.01q2.79-13.45 4.34-25.34a2.58 2.57-67.1 0 0-.94-2.33L238.2 144.6" vector-effect="non-scaling-stroke"/><path stroke="#7e6150" d="M238.2 144.6q-18.85-12.21-41.41-7.64-15.66 3.18-27.61 13.7-4.83 4.24-9.7 8.49a1.58 1.57-24.3 0 0-.52 1.37l1.2 9.22" vector-effect="non-scaling-stroke"/><path stroke="#e2a278" d="m238.2 144.6-1.17.36q-.53.16-.28.65l.18.36" vector-effect="non-scaling-stroke"/><path stroke="#7f5d49" d="M236.93 145.97q-7.63-2.95-14.93-1.29-2.85.65-2.25 2.97" vector-effect="non-scaling-stroke"/><path stroke="#e2a278" d="M219.75 147.65q-.48.08-.55-.75-.03-.5-.51-.68-.51-.19-1.23-.16" vector-effect="non-scaling-stroke"/><path stroke="#ebb187" d="M217.46 146.06q-9.98-3.09-19.52 1.21" vector-effect="non-scaling-stroke"/><path stroke="#e2a278" d="M197.94 147.27q-.83-.08-1.63.43" vector-effect="non-scaling-stroke"/><path stroke="#7f5d49" d="M196.31 147.7c.05-2.78-3.08-3.35-5.15-3.43-3.7-.14-8.14-.58-11.56 1.09q-3.65 1.78-6.43 4.73-1.24 1.32.56 1.09 4.2-.53 8.88-1.61c4.17-.97 7.55.14 11.61.38" vector-effect="non-scaling-stroke"/><path stroke="#e2a278" d="m194.22 149.95-3.03.37a1.3 1.29 16.6 0 0-.84.45q-.87.99-.08 1.9" vector-effect="non-scaling-stroke"/><path stroke="#7e6150" d="M190.27 152.67c-6.64-3.1-14.36-.4-17.37 6.31q-.15.33.17.52.17.09.34 0" vector-effect="non-scaling-stroke"/><path stroke="#ebb187" d="M173.41 159.5q-2.77 2.76-6.76 5.15-2.34 1.39-4.16 4.54" vector-effect="non-scaling-stroke"/><path stroke="#e2a278" d="M162.49 169.19q-1.26-.4-2.33.55" vector-effect="non-scaling-stroke"/><path stroke="#909597" d="M195.04 160.81q-1.8-2.13-3.88-3.96-.18-.17-.41-.06-.39.19-.21.59c3.9 8.42-7.49 12.79-11.69 6.46-1.52-2.3-.98-5.12-.08-7.8a.39.39 0 0 0-.58-.46q-2.23 1.4-3.71 3.4" vector-effect="non-scaling-stroke"/><path stroke="#f4d5bf" d="M195.31 161.08q-.43-.15-.27-.27" vector-effect="non-scaling-stroke"/><path stroke="#866b58" d="M195.04 160.81q.29-.4.2-.8-1.11-4.76-4.97-7.34" vector-effect="non-scaling-stroke"/><path stroke="#f4d5bf" d="M241.42 159.31q-.18-.36-.24-.23" vector-effect="non-scaling-stroke"/><path stroke="#866a5c" d="M241.18 159.08q.58.09.65.03a.99.96 52.9 0 0 .15-1.24c-3.39-5.31-10.71-8.29-16.57-5.15q-4.01 2.14-4.77 7.34" vector-effect="non-scaling-stroke"/><path stroke="#f3bb8f" d="M217.46 146.06q.62.4.81.95.13.39-.12.73c-5 6.64-5.4 14.92-4.78 22.98q.03.39.39.52.6.22.67-.41c.37-3.68 2.5-5.53 3.57-8.74q.15-.45.55-.7l2.09-1.33" vector-effect="non-scaling-stroke"/><path stroke="#8f796b" d="M220.64 160.06q.82-.14.49.13" vector-effect="non-scaling-stroke"/><path stroke="#fde5ce" d="M221.13 160.19q-1.27 3.13 2.23 5.45 7.54 5.01 15.55.23 3.07-1.82 2.51-6.56" vector-effect="non-scaling-stroke"/><path stroke="#f3bb8f" d="M241.42 159.31q3.12 1.71 5.97 3.7c1.62 1.13 3.12 3.15 3.82 4.92q1.7 4.32-.05 7.02-2.54 3.93-5.26 7.74-4.03 5.65-8.18 11.41m-58.91-.63q-2.71-4.69-6.71-8.35-2.2-2.02-3.71-4.6-3.29-5.62-5.9-11.33" vector-effect="non-scaling-stroke"/><path stroke="#8f7a67" d="m173.41 159.5 1.07-.52" vector-effect="non-scaling-stroke"/><path stroke="#fde5ce" d="M174.48 158.98q-.55 5.13 2.82 7.21 6.42 3.96 13.91.34 3.96-1.91 4.1-5.45" vector-effect="non-scaling-stroke"/><path stroke="#f3bb8f" d="M195.31 161.08q.53.34.58 1.08.03.48.44.74 3.47 2.17 4.84 6.08.13.36.43.44.55.15.53-.42-.17-4.89-.38-9.77-.14-3.5-.82-5.35-.95-2.6-2.81-4.75-.86-.98-.18-1.86" vector-effect="non-scaling-stroke"/><path stroke="#886651" d="m196.31 147.7-2.09 2.25m42.71-3.98q3.62 2.24 5.98 5.11 1.44 1.74-.67.93c-4.39-1.69-8.53-2.91-13.43-2.75q-3.57.12-7.07.33-1.5.09-1.99-1.94" vector-effect="non-scaling-stroke"/><path stroke="#90949b" d="M241.18 159.08q-1.66-2.03-3.98-3.11-.85-.4-.55.49c1.58 4.76 1.62 8.67-3.86 10.07-3.53.9-7.87-.87-8.49-4.82q-.3-1.9.8-3.45 1.55-2.18-.84-.98-1.09.54-3.13 2.91" vector-effect="non-scaling-stroke"/><path stroke="#866b58" d="m262.1 169.05.05 16.24q0 1 .75.34 11.89-10.54 6.96-25.49" vector-effect="non-scaling-stroke"/><path stroke="#909597" d="m269.86 160.14-2.82-4.04a.31.31 0 0 0-.52.03q-3.58 6.27-4.42 12.92" vector-effect="non-scaling-stroke"/><path stroke="#f4d5bf" d="M269.86 160.14q-2.87 2.1-3.79 3.67-1.57 2.73-2.92 5.63a.47.46 47.4 0 1-.86-.04q-.02-.07-.19-.35" vector-effect="non-scaling-stroke"/><path stroke="#866b58" d="M147.24 158.6q-3.72 7.34-1.62 15.14c1.24 4.62 4.27 8.22 7.53 11.45q1.05 1.05 1.01-.43l-.37-13.7" vector-effect="non-scaling-stroke"/><path stroke="#909597" d="M153.79 171.06q.17-8.22-4.41-14.75a.49.49 0 0 0-.87.13q-.33 1.05-1.27 2.16" vector-effect="non-scaling-stroke"/><path stroke="#f4d5bf" d="M153.79 171.06q-1.11-.58-1.38-2.3-.26-1.61-.68-2.42-2.05-3.94-4.49-7.74" vector-effect="non-scaling-stroke"/><path stroke="#2d353c" d="m327.99 193.88-5.17 2.39q-.25.11-.52.09-.13-.02-.26-.03-.35-.04-.56.25l-.97 1.35a1.49 1.48 59.7 0 0-.27 1.05q.21 1.86.77 3.55.58 1.74.62 3.02.03 1.53 0 3.13-.01.59.27 1.04.46.72 1.3.35.33-.15.53-.46.63-.98 1.79-1 1.27-.02 1.88-1.05a1.72 1.72 0 0 1 .69-.66q1.9-.99 3.73-1.14 4.24-.34 8.47 1.83c6.04 3.09 7.05 10.14 5.9 16.22-.65 3.45-3.45 6.27-6.51 7.8a.45.45 0 0 1-.64-.5q1.07-4.92-1.89-8.74a.54.54 0 0 0-.95.22c-1.32 6.66-5.46 7.01-11.25 6.5q-.65-.06-1.2.3-1.05.71-1.72 1.79c-4.76 7.61-3.94 19.16-1.16 27.07 3.15 8.94 9.96 14.39 19.89 13.35 3.75-.4 9.7-2.3 12.66-5.35a.95.94 29.8 0 0-.43-1.57c-2.66-.73-5.46-1.52-7.29-3.72q-4.28-5.16-8.15-9.61a2.09 2.07-67.7 0 1-.5-1.21c-.46-7.02 1.83-12.29 7.88-15.36q3.4-1.72 6.22-2.06c5.84-.7 15.37.96 18.72 6.68 2.97 5.07 4.27 11.17-1.17 15.36q-2.53 1.95-4.31 4.68c-1.84 2.84-4.86 4.39-7.99 5.38a.88.87-34 0 0-.3 1.51c11.5 9.48 25.8 6.63 31.53-7.46 3.62-8.93 3.85-19.9-.86-28.68a1.94 1.91-14.2 0 0-1.74-1.02c-2.35.06-5.03.5-7.18-.6q-3.06-1.56-4.1-5.46-.17-.62-.52-1.14a.97.97 0 0 0-1.75.35q-.75 3.57-1.99 7.86-.19.65-.69 1.03a.91.9 50.4 0 1-1.22-.12c-2.67-2.98-4.71-6.25-5-10.42q-.53-7.45 5.52-12.36c3.56-2.89 8.09-2.99 12.33-2.21a.61.6-6.3 0 0 .67-.83q-1.29-3.01-2.68-5.16-.7-1.09-.66-2.12.04-1.45 1.83-1.88 1.12-.27 2.13-.68a.62.61 54 0 0 .16-1.03q-.8-.69-1.47-.77" vector-effect="non-scaling-stroke"/><path stroke="#909597" d="M380.41 193.63c-6.15-4.12-13.55-5.09-21.07-6.05-6.11-.77-11.31.21-17.33 1.16q-7.66 1.21-14.02 5.14" vector-effect="non-scaling-stroke"/><path stroke="#9ba0a3" d="M380.41 193.63q-3.57-.87-6.95-1.44-16.84-2.8-33.73-.73-2.1.25-5.87 1.19-2.68.66-5.87 1.23" vector-effect="non-scaling-stroke"/><path stroke="#2d353c" d="M410.34 232.07q1.39 5.84 1.73 9.19.08.78.51 1.17.54.49.5-.24c-.05-1.02.3-1.96 1.15-2.53q3.88-2.6 8.24-2.86c2.85-.17 4.85-1.51 6.39-3.91q3.65-5.67 5.15-11.62" vector-effect="non-scaling-stroke"/><path stroke="#909597" d="M434.01 221.27c-1.04-3.86-5.2-7.08-8.31-9.51q-11.95-9.37-24.64-15.79c-2.65-1.34-5.42-2.34-8.08-3.72-4.64-2.4-9.76-3.74-14.83-4.67q-.62-.12-.06.16 10.69 5.19 18.45 14.51 10.14 12.2 13.8 29.82" vector-effect="non-scaling-stroke"/><path stroke="#9ba0a3" d="M434.01 221.27q-.84-.46-1.2-1.48-.18-.51-.55-.89-4.17-4.26-8.28-6.83-10.98-6.87-22.88-12.19-1.69-.75-.74.83c4.2 7.08 8.12 16.04 8.89 24.23.21 2.3 1.1 4.66 1.09 7.13" vector-effect="non-scaling-stroke"/><path stroke="#2d353c" d="M275.81 230.64q1.45 4.49 4.93 4.44 5.43-.08 10.98 1.24c2.29.54 4.27 2.2 5.45 4.21a.27.26 34.3 0 0 .49-.09l1.14-7.88" vector-effect="non-scaling-stroke"/><path stroke="#909597" d="M298.8 232.56q2.8-10.81 8.85-22.23 5.68-10.76 13.66-17.24c2.67-2.17 5.65-3.32 8.59-4.91q.95-.52-.11-.31-5.64 1.11-10.07 2.83c-15.25 5.9-31.5 14.62-43.11 26.29q-1.76 1.77-2.91 3.87-.25.46-.12.96l2.23 8.82" vector-effect="non-scaling-stroke"/><path stroke="#9ba0a3" d="M298.8 232.56q.38-4.45 1.65-9.92c1.95-8.4 4.4-16.31 9.22-22.42a.48.48 0 0 0-.45-.77q-.82.12-1.63.49c-7.24 3.32-32.14 15.46-32.27 23.56q-.04 2.2.49 7.14" vector-effect="non-scaling-stroke"/><path stroke="#8f7a67" d="M187.41 202.49q-.25.16-.54.47-.23.24-.31.56-2.08 8.33.99 16.24c1.9 4.88 7.22 5.5 10.95 2.24q4.81-4.2 2.62-10.63a.33.33 0 0 1 .36-.44q6.47.9 13.18-.19a.62.62 0 0 1 .62.94c-3.31 5.33 2.1 12.51 7.99 12.34 4.02-.11 6.03-3.76 6.86-7.2q.74-3.1.87-6.2.2-4.99-1.9-8.56" vector-effect="non-scaling-stroke"/><path stroke="#909597" d="M229.1 202.06q-2.47.33-8.84 1.54-14.57 2.77-32.01-1.35-.5-.12-.84.24" vector-effect="non-scaling-stroke"/><path stroke="#fde5ce" d="M229.1 202.06q-4.52 2.63-9.05 3.89-4.06 1.12-8.91.85-6.22-.34-11.98-.6-2.43-.1-4.86-.74-2.78-.74-5.59-1.4-.49-.11-.8-.5-.39-.51-.5-1.07" vector-effect="non-scaling-stroke"/><path stroke="#90878b" d="M325.58 212.94q-3.67.96.13.96.29 0 1.52-.38c1.89-.59 4.35-.17 6.17.37q2.04.6.29-.61-2.57-1.78-8.11-.34" vector-effect="non-scaling-stroke"/><path stroke="#909597" d="M378.72 213.42c2.75-.49 6.43.64 8.93 1.72q.12.05.18-.06v-.01q.05-.09-.03-.14c-3.42-2.3-7.93-3.67-11.78-1.31q-.84.52.13.31 1.37-.29 2.57-.51m-48.02 7.11a2.85 2.85 0 0 0-2.85-2.85 2.85 2.85 0 0 0-2.85 2.85 2.85 2.85 0 0 0 2.85 2.85 2.85 2.85 0 0 0 2.85-2.85m53.37-.05a2.63 2.63 0 0 0-2.63-2.63 2.63 2.63 0 0 0-2.63 2.63 2.63 2.63 0 0 0 2.63 2.63 2.63 2.63 0 0 0 2.63-2.63" vector-effect="non-scaling-stroke"/><path stroke="#866b58" d="M171.11 239.1q-1.54 10.93-2.23 20.41-.15 2.02-1.48 2.92a1.02 1.01 56.7 0 0-.28 1.39q11.49 17.82 32.92 20.81" vector-effect="non-scaling-stroke"/><path stroke="#8f7a67" d="m200.04 284.63 8.55.75" vector-effect="non-scaling-stroke"/><path stroke="#7e6150" d="M208.59 285.38q7.51.35 14.58-1.97 6.32-2.06 12.18-5.72c5.19-3.23 11.07-8.57 13.48-14.49a1.33 1.32 41 0 0-.09-1.2q-1.56-2.6-1.69-5.62-.29-6.99-1.09-14.62" vector-effect="non-scaling-stroke"/><path stroke="#6b4d41" d="m245.96 241.76-1-11.76q-.08-.92-.68-.21c-1.65 1.92-3.13 3.68-4.98 5.51q-13.84 13.69-33.65 12.8c-12.9-.58-24.51-7.05-32.57-17.24a.89.89 0 0 0-1.59.51l-.38 7.73" vector-effect="non-scaling-stroke"/><path stroke="#c78461" d="M245.96 241.76q-1.43 1.71-2.66 3.33-1.5 1.98-3.15 2.76-2.86 1.36-5.6 3.14-2.72 1.77-6.02 2.5-6.78 1.51-12.56 2.28-6.61.87-12.73-.25-5.94-1.1-18.31-4.41" vector-effect="non-scaling-stroke"/><path stroke="#cf8e69" d="M184.93 251.11q-6.73-4.88-13.82-12.01" vector-effect="non-scaling-stroke"/><path stroke="#e2a278" d="M184.93 251.11q1.17 2.55 3.06 4.16 7.33 6.25 16.26 10.1" vector-effect="non-scaling-stroke"/><path stroke="#f3bb8f" d="M204.25 265.37q-1.91.06-3.58-1.11-.49-.34-1.08-.38-2.07-.12-3.95.39-1.38.38-2.73.03-1.24-.33-2.09-1.24c-2.49-2.7-5.23-4.45-7.64-7.48q-2.69-3.4-5.32-6.46-.7-.82-1.75-1.35a.6.6 0 0 0-.87.56c.16 4.09 1.63 7.57 3.83 11.14q4.01 6.49 7.66 12.03c1.43 2.16 2.75 4.18 4.83 5.88q4.25 3.5 8.48 7.25" vector-effect="non-scaling-stroke"/><path stroke="#ebb187" d="M208.59 285.38q3.03.12 6.1-.52.8-.17 1.73-.76.83-.53 1.73-.93 1.45-.66 2.49-1.51 9.21-7.54 14.07-18.57c.93-2.12 1.91-4 1.77-6.36a.68.68 0 0 0-1.19-.41q-5.32 5.95-12.29 9.25c-6 2.84-12.74 2.44-18.75-.2" vector-effect="non-scaling-stroke"/><path stroke="#2d353c" d="M341.07 246.31q4.65-1.36 6.3-.67c2.19.92 2.39 3.34 2.57 5.38a1.86 1.85-89.4 0 0 1.63 1.67q3.46.39 6.58-.12.67-.11.71-.8c.14-2.82.7-5.34 3.62-6.47q2.32-.9 6.79 1.7" vector-effect="non-scaling-stroke"/><path stroke="#909597" d="M369.27 247q-.46-5.86-5.27-8.27-6.55-3.28-14.73-1.5-8.05 1.75-9.49 9.47-.19 1.01.66.43.42-.3.63-.82" vector-effect="non-scaling-stroke"/><path stroke="#9ba0a3" d="M369.27 247q-2.13-3.19-4.52-3.9c-3.45-1.03-6.38-.11-9.64.88q-.55.17-1.1.01c-4.78-1.33-9.65-2.62-12.94 2.32" vector-effect="non-scaling-stroke"/><path stroke="#5b6345" d="M490.53 272.96a12.36 12.36 0 0 0-12.36-12.36 12.36 12.36 0 0 0-12.36 12.36 12.36 12.36 0 0 0 12.36 12.36 12.36 12.36 0 0 0 12.36-12.36m-456.54.34a12.02 12.02 0 0 0-12.02-12.02A12.02 12.02 0 0 0 9.95 273.3a12.02 12.02 0 0 0 12.02 12.02 12.02 12.02 0 0 0 12.02-12.02" vector-effect="non-scaling-stroke"/><path stroke="#6d341e" d="M113.64 376.88q.33 2.19 2.17 9.37 1.1 4.27 2.69 15.7.07.5.39.89 3.11 3.66 6.98 6.54 9.77 7.25 20.17 13.54 14.48 8.76 37.22 16.8" vector-effect="non-scaling-stroke"/><path stroke="#909597" d="m183.26 439.72 11.04 3.08q.48.13.48-.36l.05-70.74q0-.74-.34-1.4-3.18-6.26-5.51-12.58c-7.34-19.95-15.58-40.74-23.08-61.38q-5.9-16.28-12.36-32.22a.53.52-19.4 0 0-.63-.3q-28.97 8.66-55.21 23.65-6.82 3.89-10.41 6.87-4.54 3.75-9.26 9.23-1.43 1.65.73 1.33c3.1-.46 5.29-.38 7.4 2.38q1.96 2.57 2.81 4.27 15.54 31.23 24.67 65.33" vector-effect="non-scaling-stroke"/><path stroke="#db9e85" d="m183.26 439.72-.06-60.15" vector-effect="non-scaling-stroke"/><path stroke="#e3a787" d="M183.2 379.57q.22-1.71-.04-4.5-.19-2.05-1.08-4.33-5.6-14.37-11.2-29.24" vector-effect="non-scaling-stroke"/><path stroke="#f3bd8b" d="m170.88 341.5-23.86-63.97" vector-effect="non-scaling-stroke"/><path stroke="#fedbaa" d="m147.02 277.53-2.01-5.62a.82.81 68.9 0 0-1.07-.48q-19.29 7.82-36.68 16.93-6.66 3.49-13 7.62a1.4 1.39-28.9 0 0-.51 1.75c1.23 2.69 2.72 5.05 3.55 7.95q1.51 5.21 3.36 10.29" vector-effect="non-scaling-stroke"/><path stroke="#f3bd8b" d="m100.66 315.97 1.74 5.78" vector-effect="non-scaling-stroke"/><path stroke="#e3a787" d="M102.4 321.75q.65 2.84 2.69 10 3.38 11.94 5.77 28.8" vector-effect="non-scaling-stroke"/><path stroke="#db9e85" d="M110.86 360.55q2.12 8.12 2.78 16.33" vector-effect="non-scaling-stroke"/><path stroke="#d86514" d="M170.88 341.5q-9.83.27-13.63-.62-4.98-1.16-9.85-2.06c-7.27-1.36-14.03-3.45-20.95-5.69q-3.68-1.2-7.27-2.94-3.82-1.85-7.98-3.72-1.38-.62-2.18-1.6-.92-1.14-2.01-2.32a1.55 1.48-13.3 0 0-.77-.45q-1.38-.32-2.36-1.37-.38-.41-.81-.05-.42.34-.67 1.07" vector-effect="non-scaling-stroke"/><path stroke="#c0460e" d="M183.2 379.57q-16.6 9.14-33.21 5-5.49-1.36-12.9-4.79-4.08-1.88-7.88-4.68-3.84-2.83-7.32-5.63-2.33-1.86-4.21-4.77-.53-.83-.7-1.76c-.26-1.47-1.64-2.75-2.21-4.19q-.98-2.44-2.87-4.57-.46-.51-.52.18l-.52 6.19" vector-effect="non-scaling-stroke"/><path stroke="#f39836" d="M147.02 277.53q-.48-.44-1.05-.68-.45-.19-.9.01-5.52 2.37-10.72 5.23c-2.02 1.1-4.18 1.86-6.23 2.95q-14.42 7.64-28.91 16.93c-.96.62-1.56 1.4-1.36 2.63q.37 2.31 1.31 4.37.71 1.54.97 3.36.26 1.81.53 3.64" vector-effect="non-scaling-stroke"/><path stroke="#773c44" d="M350.48 278.22c-5.99 2.44-11.59 3.64-17.18 1.5q-.89-.34-.66.59l1.94 7.92" vector-effect="non-scaling-stroke"/><path stroke="#90545e" d="m334.58 288.23.47 3.49" vector-effect="non-scaling-stroke"/><path stroke="#90878b" d="M335.05 291.72q.52 6.84 1.28 10.78.69 3.6 2.46 7.04" vector-effect="non-scaling-stroke"/><path stroke="#773c44" d="M338.79 309.54q2.48 6.7 8.15 9.71 4.15 2.2 9 1.8c9.17-.75 15.61-8.87 17.08-17.56q.67-3.92 1.4-13.07c.26-3.31 1.07-6.37 1.92-9.52a.57.57 0 0 0-.71-.7c-6.03 1.66-10.56.46-17.33-2.19" vector-effect="non-scaling-stroke"/><path stroke="#3c272a" d="M358.3 278.01q-.66-1.11-2.68-1.41-1.27-.19-2.68.37-1.59.63-2.46 1.25" vector-effect="non-scaling-stroke"/><path stroke="#90393e" d="m358.3 278.01-1.38 8.87" vector-effect="non-scaling-stroke"/><path stroke="#aa5157" d="m356.92 286.88-2.26 9.76q-.16.65-.3 0l-2.19-10.1" vector-effect="non-scaling-stroke"/><path stroke="#90393e" d="M352.17 286.54q.29-5.59-1.69-8.32" vector-effect="non-scaling-stroke"/><path stroke="#feb0b8" d="M366.75 307.69q-6.1 5.37-9.22 5.68-10.82 1.06-16.14-6.89-1.76-2.63-2.6-6.65-.86-4.13-2.45-8.16-.17-.44-.63-.36-.39.07-.66.41" vector-effect="non-scaling-stroke"/><path stroke="#e56572" d="M352.17 286.54q-4.5 5.01-11.44 3.54-1.49-.32-6.15-1.85" vector-effect="non-scaling-stroke"/><path stroke="#e4989f" d="M338.79 309.54q5.08 5.6 11.71 6.56 10.32 1.5 16.25-8.41" vector-effect="non-scaling-stroke"/><path stroke="#e56572" d="M366.75 307.69q2.99-6.02 3.28-16.11a1.2 1.2 0 0 0-1.16-1.24q-2.62-.1-5.38-.32-1.91-.15-6.57-3.14" vector-effect="non-scaling-stroke"/><path stroke="#7c4221" d="M312.07 336.65q2.64 4.38 4.09 5.95c12.17 13.22 29.52 18.33 47.23 15.78q14.09-2.02 23.88-10.38 10.99-9.38 14.79-22.78.46-1.59-.48-.23-1.96 2.82-3.71 5.64-2.83 4.55-10.49 10.32" vector-effect="non-scaling-stroke"/><path stroke="#907043" d="M387.38 340.95q-7.56 4.27-12.15 5.7-10.53 3.26-23.98 2.81-8.22-.28-16-3.02-2.49-.87-8.98-4.04" vector-effect="non-scaling-stroke"/><path stroke="#7e6150" d="M326.27 342.4q-6.98-3.91-12.34-9.66c-2.22-2.39-4.33-6.04-6.83-8.74q-.83-.89-.49.28 1.91 6.56 5.46 12.37" vector-effect="non-scaling-stroke"/><path stroke="#eba763" d="m326.27 342.4-3.7-.27q-.53-.04-.88-.45-.23-.26-.59-.27-.5 0-.14.34l1 .94" vector-effect="non-scaling-stroke"/><path stroke="#d77941" d="m321.96 342.69-9.89-6.04" vector-effect="non-scaling-stroke"/><path stroke="#e98834" d="M321.96 342.69q3.32 2.09 6.71 3.91c2.53 1.36 5.05 1.98 7.67 2.95q2.93 1.09 5.91 1.75 25.22 5.62 45.13-10.35" vector-effect="non-scaling-stroke"/><path stroke="#909597" d="M296.07 330.58q-3.05 5.76-4.47 10.01-3.38 10.1-6.54 23.02-4.14 16.94-3.59 34.39.5 16.11 3.4 28.95" vector-effect="non-scaling-stroke"/><path stroke="#2d353c" d="M284.87 426.95q1.39 10.36 7.07 18.75.78 1.16.72-.23c-.12-2.55-.11-5.33.74-7.71q1.79-5.05 2.12-8.34.97-9.73 3.39-19.64.98-4 2.74-.28c2.63 5.57 11 18.9 18.12 18.39q1.56-.12.34-1.09c-1.12-.9-1.65-2.09-2.67-3.06q-11.32-10.75-14.55-26.35-.27-1.35-.38-2.7a.7.7 0 0 1 1.18-.56q3.37 3.23 6.81 5.39 2.4 1.52.99-.95-4.44-7.79-7.83-19.74c-1.86-6.57-1.09-12.88-1.49-19.28q-.03-.5-.33-.9-.5-.69-.72-1.77-.46-2.3-1.57-5.66-.16-.47-.03-.94c.46-1.67-.3-3.28-.37-4.95q-.05-1.33-.63-2.6-.6-1.33-1.03-2.95-.74-2.79-1.02-5.52-.21-2.07.22-4.56.09-.54-.38-.27-.82.48-.24 1.15" vector-effect="non-scaling-stroke"/><path stroke="#9ba0a3" d="M284.87 426.95q-1.71-20.16.8-40.2c1.1-8.76 3.39-16.98 5.36-25.45q.06-.24.29-.17.23.08.32.3 2.36 6.3 4.64 12.62.09.26.35.35.37.11.31-.27c-1.78-11.17-2.76-23.39-1.64-34.93q.41-4.21.77-8.62" vector-effect="non-scaling-stroke"/><path stroke="#909597" d="m94.65 391.48-20.09 21.25a.31.31 0 0 0 .01.44l8.61 8.14a15.36 14.63 43.4 0 0 21.21-.08l.41-.43a15.36 14.63 43.4 0 0-1.1-21.19l-8.61-8.14a.31.31 0 0 0-.44.01m318.2 16.63c1.88-4.21.44-8.57-3.11-11.42-5.63-4.52-11.01-1.45-15.35 2.86q-4.05 4.04-8.14 7.82a.45.45 0 0 0-.02.64l20.04 20.92q.31.33.64.02l4.14-3.92a.4.4 0 0 0 .02-.58l-5.89-6.15q-.44-.45.01-.89l2.76-2.7q.46-.45 1.09-.32l10.42 2.29q.2.05.34-.08 2.7-2.42 5.16-5.06a.1.1 0 0 0-.05-.17l-11.63-2.43q-.73-.16-.43-.83m-33.62 34.43a.32.32 0 0 1-.44-.08l-3.19-4.65a.32.32 0 0 1 .08-.44l11.05-7.66a.32.32 0 0 0 .08-.44l-2.96-4.27a.32.32 0 0 0-.44-.08l-11.06 7.63a.32.32 0 0 1-.44-.08l-3.1-4.45a.32.32 0 0 1 .08-.44l12.65-8.77a.32.32 0 0 0 .08-.44l-2.99-4.24a.32.32 0 0 0-.44-.08l-17.98 12.44a.32.32 0 0 0-.08.44l16.63 24.02a.32.32 0 0 0 .44.08l18.16-12.57a.32.32 0 0 0 .08-.44l-2.96-4.28a.32.32 0 0 0-.44-.08l-12.81 8.88m-239.195 1.5a15.91 15.49 28.7 0 0-6.516-21.227 15.91 15.49 28.7 0 0-21.394 5.947 15.91 15.49 28.7 0 0 6.516 21.227 15.91 15.49 28.7 0 0 21.394-5.947m212.355 6.75a.3.3 0 0 1-.41.4l-19.6-10.22a.3.3 0 0 0-.26-.01l-5.11 2.38a.3.3 0 0 0-.14.4l12.49 26.45a.3.3 0 0 0 .4.14l5.31-2.5a.3.3 0 0 0 .14-.4l-7.65-16.15a.3.3 0 0 1 .41-.4l20.32 10.59a.3.3 0 0 0 .26.01l4.66-2.19a.3.3 0 0 0 .14-.4l-12.5-26.46a.3.3 0 0 0-.4-.14l-5.31 2.54a.3.3 0 0 0-.14.4l7.39 15.56m-186.76 14.8q-5.04.48-8.47-2.65c-8.51-7.77 3.44-23.08 13.53-13.03q1.03 1.02 1.57 2.31.34.8 1.11.4l4.33-2.27q.86-.45.34-1.27-4.94-7.83-14.2-8.67c-11.76-1.07-20.23 12.82-14.45 22.91 4.15 7.23 13.32 9.72 21.09 7.49q.51-.15.71-.63l4.57-10.95q.21-.5-.29-.7l-10.96-4.58a.56.55-66.7 0 0-.72.29L162 458.5q-.2.48.28.67l4.97 2.05q.66.27.39.93l-1.17 2.82q-.24.56-.84.62m150.423-18.075a.4.4 0 0 0-.503-.26l-5.51 1.748a.4.4 0 0 0-.26.502l8.787 27.7a.4.4 0 0 0 .503.26l5.51-1.748a.4.4 0 0 0 .26-.502l-8.787-27.7M219.67 462.37a.32.32 0 0 1 .37-.27l8.35 1.25a.32.32 0 0 0 .36-.26l.83-5.34a.32.32 0 0 0-.27-.37l-23.83-3.6a.32.32 0 0 0-.37.27l-.78 5.31a.32.32 0 0 0 .26.36l8.33 1.3a.32.32 0 0 1 .27.37l-3.49 22.86a.32.32 0 0 0 .27.37l5.87.9a.32.32 0 0 0 .37-.27l3.46-22.88m75.91 14.08a.35.35 0 0 1 .36.16l3.59 5.68a.35.35 0 0 0 .35.16l6.02-1a.35.35 0 0 0 .24-.54l-17.42-26.78a.35.35 0 0 0-.36-.15l-5.51.98a.35.35 0 0 0-.28.27l-7.21 31.07a.35.35 0 0 0 .4.43l5.84-1.03a.35.35 0 0 0 .28-.27l1.45-6.59a.35.35 0 0 1 .28-.27l11.97-2.12m-49.84 1.96 3.74-.06q.78-.02 1.22.64l5.84 8.66q.15.22.42.22l7.17.01a.13.13 0 0 0 .11-.2l-6.8-9.87q-.34-.49.17-.8.38-.22.77-.41c4.28-2.01 5.7-6.85 4.65-11.4-1.2-5.14-5.92-7.1-10.81-7.12q-6.73-.03-13.23.08a.53.53 0 0 0-.52.53l.07 29.08q0 .22.23.22l6.17-.01q.24 0 .24-.24l-.1-8.65q0-.67.66-.68m2.1-466.52-.04 7.66a.44.44 0 0 0 .44.44l6.76.04a4.5 3.96.3 0 0 4.52-3.94v-.62a4.5 3.96.3 0 0-4.48-3.98l-6.76-.04a.44.44 0 0 0-.44.44" vector-effect="non-scaling-stroke"/><path stroke="#9dcfdc" d="M258.45 71.36q14.59 13.7 20.1 33.22" vector-effect="non-scaling-stroke"/><path stroke="#98c1cd" d="M278.55 104.58q2.38 7.56 2.77 17.1" vector-effect="non-scaling-stroke"/><path stroke="#9ac7d4" d="M281.32 121.68q.55 8.28-.79 18.11-.07.5.27.87 6.48 7.26 9.46 15.88" vector-effect="non-scaling-stroke"/><path stroke="#9acbd9" d="M290.26 156.54q3.06 13.71-1.72 26.58a.64.64 0 0 0 .43.84q.37.1.91-.26 14.14-9.58 30.48-13.35" vector-effect="non-scaling-stroke"/><path stroke="#9ac7d4" d="M320.36 170.35q8.49-1.67 16.79-.69 3.29.39 5.75-.02c7.89-1.31 15.31-1.02 23.13-.08q2.8.33 6.94-.12 7.47-.81 15.14.47" vector-effect="non-scaling-stroke"/><path stroke="#98c1cd" d="M388.11 169.91q12 2.9 22.84 9.26" vector-effect="non-scaling-stroke"/><path stroke="#9acbd9" d="M410.95 179.17q13.33 6.57 23.98 16.22 1.04.95.69-.42-.44-1.73-1.31-4.06-5.78-15.41-13.18-30.14" vector-effect="non-scaling-stroke"/><path stroke="#9ac7d4" d="M421.13 160.77q-5.03-9.09-8.17-14.24-15.01-24.56-38.82-44.01Q326.3 63.45 265.97 58c-9.42-.85-19.04-.69-28.46-.93q-2.27-.06-.17.8 11.59 4.74 21.11 13.49" vector-effect="non-scaling-stroke"/><path stroke="#3692af" d="m421.13 160.77.03 1.1q.01.48-.45.35-.31-.08-.56-.33-.31-.29-.3-.72.02-.55-.57-.82-.36-.16-.63-.46l-3.09-3.45q-1.36-1.5-3.03-2.99-6.69-5.94-10.07-9.97-5.29-6.29-9.75-9.63" vector-effect="non-scaling-stroke"/><path stroke="#3996b2" d="M392.71 133.85q-14.69-13.61-23.58-20.23-7.12-5.3-23.74-15.57-1.93-1.19-3.92-2.18c-3.33-1.65-6.51-3.71-9.89-5.18q-23.87-10.35-47.94-16.25c-6.56-1.61-14.06-2.75-20.64-3.59q-1.98-.25-4.55.51" vector-effect="non-scaling-stroke"/><path stroke="#399ab7" d="M392.71 133.85q.13 1.3 1.28 1.66.48.14.78.54.76 1 1.41 2.04c1.21 1.93 3.1 2.44 3.4 5.08q.24 2.23 1.4 3.83.28.38.27.86l-.22 6.18q-.02.38-.24.69l-2.89 3.91q-.31.42-.83.51-.82.13-1.37.82-.43.54-.92.05-2.21-2.21-4.62-3.04" vector-effect="non-scaling-stroke"/><path stroke="#3790ab" d="M390.16 156.98q-8.89-7.14-18.24-14.17-.66-.49-1.35-.99-12.26-8.91-24.93-15.43c-4.63-2.39-9.25-4.93-14.01-6.88q-11.87-4.84-23.39-8.85-6.43-2.24-14.17-4.13-7.05-1.72-14.33-3.48-.93-.22-1.07.73l-.12.8" vector-effect="non-scaling-stroke"/><path stroke="#348ca8" d="M390.16 156.98q3.61 3.19 6.66 6.56c.77.84 1.7 1.24 2.65 1.82q.42.26.63.7.37.75 1.12 1.12a1.49 1.48-85.6 0 1 .75.88q.53 1.72 2.3 2.83 1.82 1.13 2.98 2.81.28.4.7.64 2.66 1.51 3.76 3.97.24.53-.31.71l-.45.15" vector-effect="non-scaling-stroke"/><path stroke="#3388a3" d="M388.11 169.91q-2.51-4.82-7.1-7.6-2.75-1.66-5.32-3.37-7.11-4.72-17.58-9.87-22.85-11.24-43.87-18.11-12.95-4.23-32.92-9.28" vector-effect="non-scaling-stroke"/><path stroke="#3692af" d="M320.36 170.35q-2.47-1.24-5.13-2.72-2.13-1.18-3.72-1.23-.62-.02-1.15-.36-2.69-1.69-5.97-2.36-2.63-.53-5.1-1.47-2.52-.97-5.34-1.77-.66-.18-.87-.83-.31-.93-1.29-1.19-.51-.13-.64-.65-.55-2.33-.89-1.23" vector-effect="non-scaling-stroke"/><path stroke="#909597" d="m82.82 82.61 5.39 5.5a.44.44 0 0 0 .62 0l4.77-4.66a4.57 3.99-44.4 0 0 .47-6.05l-.42-.43a4.57 3.99-44.4 0 0-6.05.35l-4.77 4.66a.44.44 0 0 0-.01.63" vector-effect="non-scaling-stroke"/><path stroke="#a97761" d="M203.64 185.75c-1.77-.21-3.04-1.03-4.62-1.72q-2.35-1.01-1.21 1.28 1.36 2.73 4.61 3.17 3.93.54 8.67.37 4.83-.18 7.08-3.85.25-.41.12-.88a.64.63-21.6 0 0-.9-.38q-5.89 2.97-13.75 2.01" vector-effect="non-scaling-stroke"/><path stroke="#909597" d="M95.29 400.37 83.48 412.9a.41.41 0 0 0 .01.58l3.56 3.35a8.74 8.58 43.3 0 0 12.25-.25l.6-.64a8.74 8.58 43.3 0 0-.48-12.23l-3.55-3.36a.41.41 0 0 0-.58.02m299.76 7.34 5.4 5.65a.37.37 0 0 0 .52.01l4.9-4.68a4.53 3.99-43.7 0 0 .52-6.02l-.4-.41a4.53 3.99-43.7 0 0-6.03.24l-4.9 4.68a.37.37 0 0 0-.01.53m-273.508 36.918a9.41 9.01 118.9 0 0 12.436-3.884 9.41 9.01 118.9 0 0-3.34-12.592 9.41 9.01 118.9 0 0-12.436 3.884 9.41 9.01 118.9 0 0 3.34 12.592M284.78 472.02a.31.31 0 0 0 .36.37l6.89-1.22a.31.31 0 0 0 .21-.48l-4.94-7.78a.31.31 0 0 0-.57.1l-1.95 9.01m-39.76-7.58.02 7.7a.44.44 0 0 0 .44.44l6.83-.01a4.45 4.1-.1 0 0 4.44-4.11v-.38a4.45 4.1-.1 0 0-4.46-4.09l-6.83.01a.44.44 0 0 0-.44.44" vector-effect="non-scaling-stroke"/></g><path fill="#222a30" d="M235.37 0h27.42c5.77.68 11.57 1.04 17.31 1.78q69.24 8.85 124.04 52.26 32.32 25.6 55.11 61.21 31.09 48.59 37.33 107.04.69 6.51 1.42 13.07v27.43q-.75 6.47-1.45 12.93-6.13 57.06-35.7 104.54c-29.04 46.63-71.71 81.65-122.62 101.45q-25.59 9.95-54.48 14.1-6.11.87-21.1 2.19H235.2q-6.47-.74-12.92-1.43-58.86-6.3-107.43-37.6-56.42-36.36-87.43-95.89-20.97-40.24-25.96-86.86-.72-6.77-1.46-13.57v-27.42q1.33-14.91 2.2-20.98 5.23-36.73 20.23-69.03 31.6-68.06 95.09-107.86 44.04-27.61 96.74-35.17 6.08-.87 21.11-2.19zm24.97 24.52q5.9-2.69 5.8-8.89-.14-9.02-9.42-9.85-5.77-.51-14.72-.28a.67.67 0 0 0-.65.66l-.26 28.88q0 .21.21.22l6.14.05q.25 0 .25-.25l.07-8.81a.48.48 0 0 1 .49-.48l4.04.04a1.12 1.11-16.7 0 1 .93.5l5.85 8.93q.17.26.47.26h7.14a.1.1 0 0 0 .08-.15l-6.67-9.96q-.39-.58.25-.87zm17.29 12.23a.3.3 0 0 0 .26.34l5.9.86a.3.3 0 0 0 .34-.26l4.15-28.99a.3.3 0 0 0-.26-.34l-5.9-.85a.3.3 0 0 0-.34.26l-4.15 28.98zm-83.02-12.62a.33.33 0 0 1-.55.14l-9.29-9.3a.33.33 0 0 0-.31-.09l-6.77 1.64a.33.33 0 0 0-.15.56l15.13 14.25a.33.33 0 0 1 .09.16l2.76 10.98a.33.33 0 0 0 .4.24l5.72-1.42a.33.33 0 0 0 .24-.4l-2.81-11.18a.33.33 0 0 1 .01-.18l6.5-19.55a.33.33 0 0 0-.4-.43l-6.51 1.71a.33.33 0 0 0-.23.23l-3.83 12.64zm111.41 6.93c-.75-10.81 11.86-14.61 17.49-5.14q.1.17.28.06l4.98-3.25q.27-.17.1-.45-4.02-6.58-11.86-7.75c-9.76-1.47-17.97 5.8-17.87 15.69.11 12.05 13.48 18.51 23.58 13.05q.8-.43.36-1.23l-1.97-3.56q-.57-1.04-1.61-.46c-5.78 3.24-13.02-.31-13.48-6.96zm-158.9 10.53a.31.31 0 0 1 .45-.39l11.75 7.37a.31.31 0 0 0 .47-.22l2.1-13.81a.31.31 0 0 1 .59-.08l7.58 16.51a.31.31 0 0 0 .41.15l5.37-2.48a.31.31 0 0 0 .15-.41l-12.2-26.53a.31.31 0 0 0-.41-.15l-6.01 2.74a.31.31 0 0 0-.18.24l-1.77 14.09a.31.31 0 0 1-.48.23l-11.83-7.82a.31.31 0 0 0-.3-.02l-6.01 2.75a.31.31 0 0 0-.15.41l12.22 26.53a.31.31 0 0 0 .41.15l5.31-2.4a.31.31 0 0 0 .15-.41l-7.62-16.45zm198.62-3.14a.35.35 0 0 1-.45-.48l5.17-10.64a.35.35 0 0 0-.17-.47l-5.31-2.57a.35.35 0 0 0-.47.17l-12.64 26.27a.35.35 0 0 0 .17.47l5.29 2.55a.35.35 0 0 0 .47-.17l3.73-7.73a.35.35 0 0 1 .19-.18l4.18-1.6a.35.35 0 0 1 .47.27l2.69 14.89a.35.35 0 0 0 .19.25l6.34 3.08a.35.35 0 0 0 .5-.38l-3.82-20.05a.35.35 0 0 1 .22-.39l15.49-5.76a.35.35 0 0 0 .03-.65l-6.45-3.05a.35.35 0 0 0-.28 0l-15.54 6.17zm-222.22 32.5a.38.38 0 0 1-.53-.09l-3.15-4.51a.38.38 0 0 1 .09-.53l10.94-7.63a.38.38 0 0 0 .09-.53l-2.92-4.16a.38.38 0 0 0-.53-.09l-10.9 7.61a.38.38 0 0 1-.53-.09l-3.06-4.34a.38.38 0 0 1 .09-.53l12.51-8.73a.38.38 0 0 0 .09-.53l-2.93-4.15a.38.38 0 0 0-.53-.09L104.42 55a.38.38 0 0 0-.09.53l16.65 23.86a.38.38 0 0 0 .53.09l18.02-12.57a.38.38 0 0 0 .09-.53l-2.93-4.15a.38.38 0 0 0-.53-.09l-12.64 8.81zm259.1-18.7a.38.38 0 0 1 .53-.09l12.46 8.78a.38.38 0 0 0 .53-.09l2.94-4.15a.38.38 0 0 0-.09-.53l-17.81-12.54a.38.38 0 0 0-.53.09l-16.76 23.79a.38.38 0 0 0 .09.53l17.96 12.64a.38.38 0 0 0 .53-.09l2.93-4.14a.38.38 0 0 0-.09-.53l-12.64-8.91a.38.38 0 0 1-.09-.53l3.2-4.48a.38.38 0 0 1 .53-.09l10.88 7.66a.38.38 0 0 0 .53-.09l2.93-4.14a.38.38 0 0 0-.09-.53l-10.9-7.69a.38.38 0 0 1-.09-.53l3.05-4.34zM46.83 256.2q.42 14.6 2.63 29.55 1.51 10.16 4.89 19.62l6.3 21.09a.21.2-54.7 0 0 .4-.07q-.11-3.51.08-7.35c1.35-26.25 24.5-40.29 45.43-50.46q15.93-7.74 29.72-12.68 8.6-3.08 18.11-6.29c1.45-.48 2.96-.63 4.41-1.09q.49-.15.58-.65 2.6-13.88 3.13-27.81.06-1.61-.88-3.17c-3.47-5.74-5.04-11.15-6.25-17.68a1.5 1.49-81.1 0 0-.75-1.04c-7.22-3.99-13.25-8.98-16.66-16.42-5.89-12.85-2.95-26.36 7.95-35.42q.43-.36.38-.92c-.22-2.27-.8-4.46-.97-6.71q-.93-11.67.14-21.79 1.42-13.44 9.2-26.27 7.94-13.11 23.16-21.35 8.13-4.4 18.97-6.22 14.59-2.45 26.28.31 18.08 4.27 31.08 17.83 15.38 16.02 16.9 38.26c.54 8 .2 17.39-.84 25.49q-.14 1.14.75 1.9c9.05 7.79 12.57 19.03 8.99 30.07-2.94 9.06-9.04 17.34-18.36 20.51a.84.84 0 0 0-.56.76c-.18 6.62-3.24 12.82-5.95 19a5.21 5.18-36 0 0-.41 2.54l2.68 28.08q.04.48.51.6l7.41 1.74a1.15 1.14-75.1 0 1 .83 1.44q-5.51 18.47-11.91 35.64-9.17 24.6-19.03 50.54-5.07 13.33-9.59 25.35c-.68 1.83-1.68 3.65-2.68 5.32q-1 1.65-.99 3.93.01 34.82-.14 76.01 0 .51.51.58l10.61 1.56q21.19 2.36 41.3-.4 1.49-.21.97-1.62-4.35-11.95-6.08-24.02-2.15-14.92-1.33-30.03 2.13-33.49 13.61-60.44 1.95-4.6 3.62-8.67 1.86-4.55 3.82-8.64 2.16-4.49 4.08-8.69 2.19-4.78 6.04-11.41 1.66-2.85 2.12-4.42 1.23-2.59 1.72-3.76 1.02-2.48.11-2.9l-1.53-20.81q-.15-2.1-.94-.15-3.47 8.67-14.02 12.17l-3.09.74a.66.65-7.1 0 1-.81-.62l-.02-2.06c.67-7.87-.8-16.46-5.47-22.72q-1.97-2.64-3.94-5.29c-4.88-6.59-6.96-14.28-7.49-22.8-.31-5.08 1.23-9.45 4.68-13.19q5-5.41 12.48-10.53 13.25-9.06 27.31-15.13c8.83-3.82 19.2-6.55 28.58-4.75q2.11.4 4.17-.02 11.48-2.4 22.02-.3 2.83.57 5.65.25c6.17-.68 12.92-.65 18.46.93 13.05 3.7 26.15 11.74 37.55 19.81 6.12 4.34 15.08 11.11 15.87 18.92q1.11 11.01-4.05 21.99c-2.1 4.45-5.15 8.36-7.49 12.67-3.53 6.53-4.63 14.95-5.1 22.24a.66.66 0 0 1-.85.59q-11.46-3.55-16.1-13.53-.83-1.78-.94.18-.59 10.16-.69 21.42-.01 1.65.97 3.34 2.02 3.48 3.95 6.83 10.49 18.17 12.58 38.87 1.1 10.98.77 20.76-.05 1.51.65.17l8.4-16.06q2.82-4.99 4.13-8.13 9.3-22.25 13.02-41.57 4.97-25.79 3.55-55.64-3.61-41.59-22.81-78.94-16.89-32.83-43.37-56.21-7.33-6.48-15.41-12.69-13.18-10.13-29.64-18.42-21.99-11.08-45.56-17.02-10.45-2.64-20.31-3.86c-33.28-4.13-67.7-1.12-99.04 10.8q-28.26 10.74-51.28 28.44-32.17 24.75-53.03 60.03-5.78 9.8-10.34 19.57-19.9 42.71-17.51 90.39zm365.3-180.71a.39.39 0 0 1 .01.55l-16.08 16.54a.39.39 0 0 0 .01.55l4.19 4.01a.39.39 0 0 0 .55-.01l16.05-16.49a.39.39 0 0 1 .55-.01l5.91 5.81a.39.39 0 0 0 .55-.01l3.69-3.76a.39.39 0 0 0-.01-.55L410.4 65.37a.39.39 0 0 0-.55.01l-3.7 3.83a.39.39 0 0 0 .01.55l5.97 5.73zm-311.55 7.26q2.28-5.83-2.09-10.33c-5.77-5.96-11.78-2.74-16.78 2.33q-4.2 4.27-7.8 7.64a.34.34 0 0 0-.01.49l20.23 20.68q.44.44.89 0l3.79-3.72q.45-.44.01-.88l-5.79-5.94q-.46-.47.01-.93l2.82-2.77q.39-.38.91-.27l10.55 2.22a.42.41 27.6 0 0 .39-.12l5.09-5.01a.14.14 0 0 0-.07-.24l-11.7-2.33q-.71-.14-.45-.82zm58.92 23.99q-.42.52-.45.75-1.28 10.11-.82 21.1a.59.59 0 0 0 .95.44c3.2-2.48 6.13-5.01 9.64-6.99q9.42-5.32 19.73-8.13 6.92-1.88 15.61-2.05 9.62-.19 16.27.88 9.72 1.56 18.12 4.94 9.95 4.01 18.59 11.44a.6.59-70.5 0 0 .98-.47c-.09-5.1.28-10.33-.48-15.47q-.47-3.23-.92-6.12-8.21-22.84-28.92-30.9-17.17-6.69-34.32-1.58c-10.07 3-20.74 9.07-26.76 17.92q-4.53 6.66-7.22 14.24zm277.13-4.18a.39.39 0 0 1-.08.54l-18.42 13.84a.39.39 0 0 0-.07.55l3.5 4.63a.39.39 0 0 0 .54.08l18.39-13.83a.39.39 0 0 1 .54.08l5 6.64a.39.39 0 0 0 .55.07l4.19-3.17a.39.39 0 0 0 .08-.54L436.5 92.32a.39.39 0 0 0-.54-.08l-4.24 3.12a.39.39 0 0 0-.08.55l4.99 6.65zM63.71 114.43a.38.38 0 0 1-.53.09l-4.27-3.14a.38.38 0 0 1-.08-.53l9.01-12.26a.38.38 0 0 0-.09-.53l-4.09-3.01a.38.38 0 0 0-.53.08l-12.87 17.53a.38.38 0 0 0 .08.53l23.46 17.2a.38.38 0 0 0 .53-.09l13-17.72a.38.38 0 0 0-.09-.53l-4.11-3.02a.38.38 0 0 0-.53.09l-9.11 12.46a.38.38 0 0 1-.53.09l-4.45-3.26a.38.38 0 0 1-.08-.53l7.87-10.72a.38.38 0 0 0-.09-.53l-4.1-3.02a.38.38 0 0 0-.53.08l-7.87 10.74zm104.25 23.28q-3.67 2.51-5.35 5.97-1.47 3.04 1.08.82 1.82-1.58 4.08-2.73 2.06-1.05 4-2.47 10.61-7.77 24-11.11c10.24-2.56 20.16-1.39 29.95 1.71 3.02.95 5.78 2.34 8.62 3.67q3.39 1.58 6.2 3.52 4.38 3.02 8.48 6.05 4.72 3.48 1.38-1.33c-2.34-3.36-5.93-6.19-9.15-9.01-2.3-2.02-5.13-3.49-7.64-5.42q-1.56-1.2-5.52-1.86-7.83-3.75-10.83-4.31-18.62-3.51-35.02 4.47-8.01 3.9-14.28 12.03zm278.79 10.18a2.59 2.58 58.5 0 1-3.03-.73q-3.69-4.54-2.2-11.17.04-.17-.13-.2l-5.62-1.19q-.28-.06-.33.22-1.7 9.32 3.87 15.99 3.87 4.66 9.02 3.29c9.36-2.49 6.33-11.01 4.92-17.71q-.35-1.7.79-2.86a2.35 2.34 42.1 0 1 3.15-.15c2.57 2.14 3.07 6.33 2.63 9.42q-.1.72.62.8l4.76.5q.61.07.68-.55.9-8.06-3.78-13.5-4.01-4.68-9.48-2.97c-12.58 3.92-.31 18.38-5.87 20.81zM59.62 136.61c-5.72-3.45-11.99-6.35-17.86-9.52q-.45-.24-.68.2l-2.7 5.08q-.25.47.21.71 8.71 4.49 16.94 8.9c5.57 2.98 1.58 7.98-2.74 8.97a.28.27 73.2 0 0-.19.37l1.99 5.18q.1.28.39.21c9.16-2.2 13.89-14.52 4.64-20.1zm100.54 33.13q.77 3.44 2.92 15.26 1.76 9.72 7.3 19.67 1.85 3.31 4.69 6.72.42.51.46-.15.2-3.5.04-7.23-.25-5.79 3.24-10.54 9.53-4.23 21.69-2.73c10.61 1.3 21.86-1.53 31.98.57q2.04.42 5.24 2.79 2.99 3.34 3.24 7.9.23 4.26.09 8.17-.08 2.29 1.28.44c5.09-6.96 8.59-15.22 10.41-24.01q2.79-13.45 4.34-25.34a2.58 2.57-67.1 0 0-.94-2.33L238.2 144.6q-18.85-12.21-41.41-7.64-15.66 3.18-27.61 13.7-4.83 4.24-9.7 8.49a1.58 1.57-24.3 0 0-.52 1.37l1.2 9.22zm101.94-.69.05 16.24q0 1 .75.34 11.89-10.54 6.96-25.49l-2.82-4.04a.31.31 0 0 0-.52.03q-3.58 6.27-4.42 12.92zM147.24 158.6q-3.72 7.34-1.62 15.14c1.24 4.62 4.27 8.22 7.53 11.45q1.05 1.05 1.01-.43l-.37-13.7q.17-8.22-4.41-14.75a.49.49 0 0 0-.87.13q-.33 1.05-1.27 2.16zm180.75 35.28-5.17 2.39q-.25.11-.52.09-.13-.02-.26-.03-.35-.04-.56.25l-.97 1.35a1.49 1.48 59.7 0 0-.27 1.05q.21 1.86.77 3.55.58 1.74.62 3.02.03 1.53 0 3.13-.01.59.27 1.04.46.72 1.3.35.33-.15.53-.46.63-.98 1.79-1 1.27-.02 1.88-1.05a1.72 1.72 0 0 1 .69-.66q1.9-.99 3.73-1.14 4.24-.34 8.47 1.83c6.04 3.09 7.05 10.14 5.9 16.22-.65 3.45-3.45 6.27-6.51 7.8a.45.45 0 0 1-.64-.5q1.07-4.92-1.89-8.74a.54.54 0 0 0-.95.22c-1.32 6.66-5.46 7.01-11.25 6.5q-.65-.06-1.2.3-1.05.71-1.72 1.79c-4.76 7.61-3.94 19.16-1.16 27.07 3.15 8.94 9.96 14.39 19.89 13.35 3.75-.4 9.7-2.3 12.66-5.35a.95.94 29.8 0 0-.43-1.57c-2.66-.73-5.46-1.52-7.29-3.72q-4.28-5.16-8.15-9.61a2.09 2.07-67.7 0 1-.5-1.21c-.46-7.02 1.83-12.29 7.88-15.36q3.4-1.72 6.22-2.06c5.84-.7 15.37.96 18.72 6.68 2.97 5.07 4.27 11.17-1.17 15.36q-2.53 1.95-4.31 4.68c-1.84 2.84-4.86 4.39-7.99 5.38a.88.87-34 0 0-.3 1.51c11.5 9.48 25.8 6.63 31.53-7.46 3.62-8.93 3.85-19.9-.86-28.68a1.94 1.91-14.2 0 0-1.74-1.02c-2.35.06-5.03.5-7.18-.6q-3.06-1.56-4.1-5.46-.17-.62-.52-1.14a.97.97 0 0 0-1.75.35q-.75 3.57-1.99 7.86-.19.65-.69 1.03a.91.9 50.4 0 1-1.22-.12c-2.67-2.98-4.71-6.25-5-10.42q-.53-7.45 5.52-12.36c3.56-2.89 8.09-2.99 12.33-2.21a.61.6-6.3 0 0 .67-.83q-1.29-3.01-2.68-5.16-.7-1.09-.66-2.12.04-1.45 1.83-1.88 1.12-.27 2.13-.68a.62.61 54 0 0 .16-1.03q-.8-.69-1.47-.77c-6.15-4.12-13.55-5.09-21.07-6.05-6.11-.77-11.31.21-17.33 1.16q-7.66 1.21-14.02 5.14zm82.35 38.19q1.39 5.84 1.73 9.19.08.78.51 1.17.54.49.5-.24c-.05-1.02.3-1.96 1.15-2.53q3.88-2.6 8.24-2.86c2.85-.17 4.85-1.51 6.39-3.91q3.65-5.67 5.15-11.62c-1.04-3.86-5.2-7.08-8.31-9.51q-11.95-9.37-24.64-15.79c-2.65-1.34-5.42-2.34-8.08-3.72-4.64-2.4-9.76-3.74-14.83-4.67q-.62-.12-.06.16 10.69 5.19 18.45 14.51 10.14 12.2 13.8 29.82zm-134.53-1.43q1.45 4.49 4.93 4.44 5.43-.08 10.98 1.24c2.29.54 4.27 2.2 5.45 4.21a.27.26 34.3 0 0 .49-.09l1.14-7.88q2.8-10.81 8.85-22.23 5.68-10.76 13.66-17.24c2.67-2.17 5.65-3.32 8.59-4.91q.95-.52-.11-.31-5.64 1.11-10.07 2.83c-15.25 5.9-31.5 14.62-43.11 26.29q-1.76 1.77-2.91 3.87-.25.46-.12.96l2.23 8.82zm-88.4-28.15q-.25.16-.54.47-.23.24-.31.56-2.08 8.33.99 16.24c1.9 4.88 7.22 5.5 10.95 2.24q4.81-4.2 2.62-10.63a.33.33 0 0 1 .36-.44q6.47.9 13.18-.19a.62.62 0 0 1 .62.94c-3.31 5.33 2.1 12.51 7.99 12.34 4.02-.11 6.03-3.76 6.86-7.2q.74-3.1.87-6.2.2-4.99-1.9-8.56-2.47.33-8.84 1.54-14.57 2.77-32.01-1.35-.5-.12-.84.24zm138.17 10.45q-3.67.96.13.96.29 0 1.52-.38c1.89-.59 4.35-.17 6.17.37q2.04.6.29-.61-2.57-1.78-8.11-.34zm53.14.48c2.75-.49 6.43.64 8.93 1.72q.12.05.18-.06v-.01q.05-.09-.03-.14c-3.42-2.3-7.93-3.67-11.78-1.31q-.84.52.13.31 1.37-.29 2.57-.51zm-48.02 7.11a2.85 2.85 0 0 0-2.85-2.85 2.85 2.85 0 0 0-2.85 2.85 2.85 2.85 0 0 0 2.85 2.85 2.85 2.85 0 0 0 2.85-2.85zm53.37-.05a2.63 2.63 0 0 0-2.63-2.63 2.63 2.63 0 0 0-2.63 2.63 2.63 2.63 0 0 0 2.63 2.63 2.63 2.63 0 0 0 2.63-2.63zM171.11 239.1q-1.54 10.93-2.23 20.41-.15 2.02-1.48 2.92a1.02 1.01 56.7 0 0-.28 1.39q11.49 17.82 32.92 20.81l8.55.75q7.51.35 14.58-1.97 6.32-2.06 12.18-5.72c5.19-3.23 11.07-8.57 13.48-14.49a1.33 1.32 41 0 0-.09-1.2q-1.56-2.6-1.69-5.62-.29-6.99-1.09-14.62l-1-11.76q-.08-.92-.68-.21c-1.65 1.92-3.13 3.68-4.98 5.51q-13.84 13.69-33.65 12.8c-12.9-.58-24.51-7.05-32.57-17.24a.89.89 0 0 0-1.59.51l-.38 7.73zm169.96 7.21q4.65-1.36 6.3-.67c2.19.92 2.39 3.34 2.57 5.38a1.86 1.85-89.4 0 0 1.63 1.67q3.46.39 6.58-.12.67-.11.71-.8c.14-2.82.7-5.34 3.62-6.47q2.32-.9 6.79 1.7-.46-5.86-5.27-8.27-6.55-3.28-14.73-1.5-8.05 1.75-9.49 9.47-.19 1.01.66.43.42-.3.63-.82zm149.46 26.65a12.36 12.36 0 0 0-12.36-12.36 12.36 12.36 0 0 0-12.36 12.36 12.36 12.36 0 0 0 12.36 12.36 12.36 12.36 0 0 0 12.36-12.36zm-456.54.34a12.02 12.02 0 0 0-12.02-12.02A12.02 12.02 0 0 0 9.95 273.3a12.02 12.02 0 0 0 12.02 12.02 12.02 12.02 0 0 0 12.02-12.02zm79.65 103.58q.33 2.19 2.17 9.37 1.1 4.27 2.69 15.7.07.5.39.89 3.11 3.66 6.98 6.54 9.77 7.25 20.17 13.54 14.48 8.76 37.22 16.8l11.04 3.08q.48.13.48-.36l.05-70.74q0-.74-.34-1.4-3.18-6.26-5.51-12.58c-7.34-19.95-15.58-40.74-23.08-61.38q-5.9-16.28-12.36-32.22a.53.52-19.4 0 0-.63-.3q-28.97 8.66-55.21 23.65-6.82 3.89-10.41 6.87-4.54 3.75-9.26 9.23-1.43 1.65.73 1.33c3.1-.46 5.29-.38 7.4 2.38q1.96 2.57 2.81 4.27 15.54 31.23 24.67 65.33zm236.84-98.66c-5.99 2.44-11.59 3.64-17.18 1.5q-.89-.34-.66.59l1.94 7.92.47 3.49q.52 6.84 1.28 10.78.69 3.6 2.46 7.04 2.48 6.7 8.15 9.71 4.15 2.2 9 1.8c9.17-.75 15.61-8.87 17.08-17.56q.67-3.92 1.4-13.07c.26-3.31 1.07-6.37 1.92-9.52a.57.57 0 0 0-.71-.7c-6.03 1.66-10.56.46-17.33-2.19q-.66-1.11-2.68-1.41-1.27-.19-2.68.37-1.59.63-2.46 1.25zm-38.41 58.43q2.64 4.38 4.09 5.95c12.17 13.22 29.52 18.33 47.23 15.78q14.09-2.02 23.88-10.38 10.99-9.38 14.79-22.78.46-1.59-.48-.23-1.96 2.82-3.71 5.64-2.83 4.55-10.49 10.32-7.56 4.27-12.15 5.7-10.53 3.26-23.98 2.81-8.22-.28-16-3.02-2.49-.87-8.98-4.04-6.98-3.91-12.34-9.66c-2.22-2.39-4.33-6.04-6.83-8.74q-.83-.89-.49.28 1.91 6.56 5.46 12.37zm-16-6.07q-3.05 5.76-4.47 10.01-3.38 10.1-6.54 23.02-4.14 16.94-3.59 34.39.5 16.11 3.4 28.95 1.39 10.36 7.07 18.75.78 1.16.72-.23c-.12-2.55-.11-5.33.74-7.71q1.79-5.05 2.12-8.34.97-9.73 3.39-19.64.98-4 2.74-.28c2.63 5.57 11 18.9 18.12 18.39q1.56-.12.34-1.09c-1.12-.9-1.65-2.09-2.67-3.06q-11.32-10.75-14.55-26.35-.27-1.35-.38-2.7a.7.7 0 0 1 1.18-.56q3.37 3.23 6.81 5.39 2.4 1.52.99-.95-4.44-7.79-7.83-19.74c-1.86-6.57-1.09-12.88-1.49-19.28q-.03-.5-.33-.9-.5-.69-.72-1.77-.46-2.3-1.57-5.66-.16-.47-.03-.94c.46-1.67-.3-3.28-.37-4.95q-.05-1.33-.63-2.6-.6-1.33-1.03-2.95-.74-2.79-1.02-5.52-.21-2.07.22-4.56.09-.54-.38-.27-.82.48-.24 1.15zm-201.42 60.9-20.09 21.25a.31.31 0 0 0 .01.44l8.61 8.14a15.36 14.63 43.4 0 0 21.21-.08l.41-.43a15.36 14.63 43.4 0 0-1.1-21.19l-8.61-8.14a.31.31 0 0 0-.44.01zm318.2 16.63c1.88-4.21.44-8.57-3.11-11.42-5.63-4.52-11.01-1.45-15.35 2.86q-4.05 4.04-8.14 7.82a.45.45 0 0 0-.02.64l20.04 20.92q.31.33.64.02l4.14-3.92a.4.4 0 0 0 .02-.58l-5.89-6.15q-.44-.45.01-.89l2.76-2.7q.46-.45 1.09-.32l10.42 2.29q.2.05.34-.08 2.7-2.42 5.16-5.06a.1.1 0 0 0-.05-.17l-11.63-2.43q-.73-.16-.43-.83zm-33.62 34.43a.32.32 0 0 1-.44-.08l-3.19-4.65a.32.32 0 0 1 .08-.44l11.05-7.66a.32.32 0 0 0 .08-.44l-2.96-4.27a.32.32 0 0 0-.44-.08l-11.06 7.63a.32.32 0 0 1-.44-.08l-3.1-4.45a.32.32 0 0 1 .08-.44l12.65-8.77a.32.32 0 0 0 .08-.44l-2.99-4.24a.32.32 0 0 0-.44-.08l-17.98 12.44a.32.32 0 0 0-.08.44l16.63 24.02a.32.32 0 0 0 .44.08l18.16-12.57a.32.32 0 0 0 .08-.44l-2.96-4.28a.32.32 0 0 0-.44-.08l-12.81 8.88zm-239.195 1.5a15.91 15.49 28.7 0 0-6.516-21.227 15.91 15.49 28.7 0 0-21.394 5.947 15.91 15.49 28.7 0 0 6.516 21.227 15.91 15.49 28.7 0 0 21.394-5.947zm212.355 6.75a.3.3 0 0 1-.41.4l-19.6-10.22a.3.3 0 0 0-.26-.01l-5.11 2.38a.3.3 0 0 0-.14.4l12.49 26.45a.3.3 0 0 0 .4.14l5.31-2.5a.3.3 0 0 0 .14-.4l-7.65-16.15a.3.3 0 0 1 .41-.4l20.32 10.59a.3.3 0 0 0 .26.01l4.66-2.19a.3.3 0 0 0 .14-.4l-12.5-26.46a.3.3 0 0 0-.4-.14l-5.31 2.54a.3.3 0 0 0-.14.4l7.39 15.56zm-186.76 14.8q-5.04.48-8.47-2.65c-8.51-7.77 3.44-23.08 13.53-13.03q1.03 1.02 1.57 2.31.34.8 1.11.4l4.33-2.27q.86-.45.34-1.27-4.94-7.83-14.2-8.67c-11.76-1.07-20.23 12.82-14.45 22.91 4.15 7.23 13.32 9.72 21.09 7.49q.51-.15.71-.63l4.57-10.95q.21-.5-.29-.7l-10.96-4.58a.56.55-66.7 0 0-.72.29L162 458.5q-.2.48.28.67l4.97 2.05q.66.27.39.93l-1.17 2.82q-.24.56-.84.62zm150.423-18.075a.4.4 0 0 0-.503-.26l-5.51 1.748a.4.4 0 0 0-.26.502l8.787 27.7a.4.4 0 0 0 .503.26l5.51-1.748a.4.4 0 0 0 .26-.502l-8.787-27.7zM219.67 462.37a.32.32 0 0 1 .37-.27l8.35 1.25a.32.32 0 0 0 .36-.26l.83-5.34a.32.32 0 0 0-.27-.37l-23.83-3.6a.32.32 0 0 0-.37.27l-.78 5.31a.32.32 0 0 0 .26.36l8.33 1.3a.32.32 0 0 1 .27.37l-3.49 22.86a.32.32 0 0 0 .27.37l5.87.9a.32.32 0 0 0 .37-.27l3.46-22.88zm75.91 14.08a.35.35 0 0 1 .36.16l3.59 5.68a.35.35 0 0 0 .35.16l6.02-1a.35.35 0 0 0 .24-.54l-17.42-26.78a.35.35 0 0 0-.36-.15l-5.51.98a.35.35 0 0 0-.28.27l-7.21 31.07a.35.35 0 0 0 .4.43l5.84-1.03a.35.35 0 0 0 .28-.27l1.45-6.59a.35.35 0 0 1 .28-.27l11.97-2.12zm-49.84 1.96 3.74-.06q.78-.02 1.22.64l5.84 8.66q.15.22.42.22l7.17.01a.13.13 0 0 0 .11-.2l-6.8-9.87q-.34-.49.17-.8.38-.22.77-.41c4.28-2.01 5.7-6.85 4.65-11.4-1.2-5.14-5.92-7.1-10.81-7.12q-6.73-.03-13.23.08a.53.53 0 0 0-.52.53l.07 29.08q0 .22.23.22l6.17-.01q.24 0 .24-.24l-.1-8.65q0-.67.66-.68z"/><path fill="#fefffe" d="m260.09 25.39 6.67 9.96a.1.1 0 0 1-.08.15h-7.14q-.3 0-.47-.26l-5.85-8.93a1.12 1.11-16.7 0 0-.93-.5l-4.04-.04a.48.48 0 0 0-.49.48l-.07 8.81q0 .25-.25.25l-6.14-.05q-.21-.01-.21-.22l.26-28.88a.67.67 0 0 1 .65-.66q8.95-.23 14.72.28 9.28.83 9.42 9.85.1 6.2-5.8 8.89-.64.29-.25.87zm-12.25-13.5-.04 7.66a.44.44 0 0 0 .44.44l6.76.04a4.5 3.96.3 0 0 4.52-3.94v-.62a4.5 3.96.3 0 0-4.48-3.98l-6.76-.04a.44.44 0 0 0-.44.44zm29.79 24.86 4.15-28.98a.3.3 0 0 1 .34-.26l5.9.85a.3.3 0 0 1 .26.34l-4.15 28.99a.3.3 0 0 1-.34.26l-5.9-.86a.3.3 0 0 1-.26-.34zm-83.02-12.62 3.83-12.64a.33.33 0 0 1 .23-.23l6.51-1.71a.33.33 0 0 1 .4.43l-6.5 19.55a.33.33 0 0 0-.01.18l2.81 11.18a.33.33 0 0 1-.24.4l-5.72 1.42a.33.33 0 0 1-.4-.24l-2.76-10.98a.33.33 0 0 0-.09-.16l-15.13-14.25a.33.33 0 0 1 .15-.56l6.77-1.64a.33.33 0 0 1 .31.09l9.29 9.3a.33.33 0 0 0 .55-.14z"/><path fill="#222a30" d="M247.84 11.89a.44.44 0 0 1 .44-.44l6.76.04a4.5 3.96.3 0 1 4.48 3.98v.62a4.5 3.96.3 0 1-4.52 3.94l-6.76-.04a.44.44 0 0 1-.44-.44l.04-7.66z"/><path fill="#fefffe" d="M323.51 25.92c-5.63-9.47-18.24-5.67-17.49 5.14.46 6.65 7.7 10.2 13.48 6.96q1.04-.58 1.61.46l1.97 3.56q.44.8-.36 1.23c-10.1 5.46-23.47-1-23.58-13.05-.1-9.89 8.11-17.16 17.87-15.69q7.84 1.17 11.86 7.75.17.28-.1.45l-4.98 3.25q-.18.11-.28-.06zM147.12 41.59l7.62 16.45a.31.31 0 0 1-.15.41l-5.31 2.4a.31.31 0 0 1-.41-.15l-12.22-26.53a.31.31 0 0 1 .15-.41l6.01-2.75a.31.31 0 0 1 .3.02l11.83 7.82a.31.31 0 0 0 .48-.23l1.77-14.09a.31.31 0 0 1 .18-.24l6.01-2.74a.31.31 0 0 1 .41.15l12.2 26.53a.31.31 0 0 1-.15.41l-5.37 2.48a.31.31 0 0 1-.41-.15l-7.58-16.51a.31.31 0 0 0-.59.08l-2.1 13.81a.31.31 0 0 1-.47.22l-11.75-7.37a.31.31 0 0 0-.45.39zm198.62-3.14 15.54-6.17a.35.35 0 0 1 .28 0l6.45 3.05a.35.35 0 0 1-.03.65l-15.49 5.76a.35.35 0 0 0-.22.39l3.82 20.05a.35.35 0 0 1-.5.38l-6.34-3.08a.35.35 0 0 1-.19-.25l-2.69-14.89a.35.35 0 0 0-.47-.27l-4.18 1.6a.35.35 0 0 0-.19.18l-3.73 7.73a.35.35 0 0 1-.47.17l-5.29-2.55a.35.35 0 0 1-.17-.47l12.64-26.27a.35.35 0 0 1 .47-.17l5.31 2.57a.35.35 0 0 1 .17.47l-5.17 10.64a.35.35 0 0 0 .45.48zm-222.22 32.5 12.64-8.81a.38.38 0 0 1 .53.09l2.93 4.15a.38.38 0 0 1-.09.53l-18.02 12.57a.38.38 0 0 1-.53-.09l-16.65-23.86a.38.38 0 0 1 .09-.53l17.83-12.44a.38.38 0 0 1 .53.09l2.93 4.15a.38.38 0 0 1-.09.53l-12.51 8.73a.38.38 0 0 0-.09.53l3.06 4.34a.38.38 0 0 0 .53.09l10.9-7.61a.38.38 0 0 1 .53.09l2.92 4.16a.38.38 0 0 1-.09.53l-10.94 7.63a.38.38 0 0 0-.09.53l3.15 4.51a.38.38 0 0 0 .53.09zm259.1-18.7-3.05 4.34a.38.38 0 0 0 .09.53l10.9 7.69a.38.38 0 0 1 .09.53l-2.93 4.14a.38.38 0 0 1-.53.09l-10.88-7.66a.38.38 0 0 0-.53.09l-3.2 4.48a.38.38 0 0 0 .09.53l12.64 8.91a.38.38 0 0 1 .09.53l-2.93 4.14a.38.38 0 0 1-.53.09l-17.96-12.64a.38.38 0 0 1-.09-.53l16.76-23.79a.38.38 0 0 1 .53-.09l17.81 12.54a.38.38 0 0 1 .09.53l-2.94 4.15a.38.38 0 0 1-.53.09l-12.46-8.78a.38.38 0 0 0-.53.09zm72.51 181.86q.23 3.73.18 5.63-.13 6.1-1.48.15-.77-3.41-1.84-6.76-.53-1.64-.79.07c-1.36 8.9-4.61 16.88-9.12 24.63q-2.35 4.03-3.66 8.28-2.93 9.49-5.32 17.33a1.33 1.33 0 0 1-.82.87q-5.57 2.09-12 2.56a.6.59-20.3 0 0-.44.94q7.85 10.59 11.22 23.7 3.14 12.18 3.37 27.94l-8.4 16.06q-.7 1.34-.65-.17.33-9.78-.77-20.76-2.09-20.7-12.58-38.87-1.93-3.35-3.95-6.83-.98-1.69-.97-3.34.1-11.26.69-21.42.11-1.96.94-.18 4.64 9.98 16.1 13.53a.66.66 0 0 0 .85-.59c.47-7.29 1.57-15.71 5.1-22.24 2.34-4.31 5.39-8.22 7.49-12.67q5.16-10.98 4.05-21.99c-.79-7.81-9.75-14.58-15.87-18.92-11.4-8.07-24.5-16.11-37.55-19.81-5.54-1.58-12.29-1.61-18.46-.93q-2.82.32-5.65-.25-10.54-2.1-22.02.3-2.06.42-4.17.02c-9.38-1.8-19.75.93-28.58 4.75q-14.06 6.07-27.31 15.13-7.48 5.12-12.48 10.53c-3.45 3.74-4.99 8.11-4.68 13.19.53 8.52 2.61 16.21 7.49 22.8q1.97 2.65 3.94 5.29c4.67 6.26 6.14 14.85 5.47 22.72l-9.03-4.28a.87.87 0 0 0-1.19.48l-2.93 7.83q-.84 2.25-1.4 3.73-6.62 17.57-13.21 35.15-.27.7-.94 1.99-.52 1-.86 2.06-1.55 4.79-2.92 8.88l-14.34 37q-.93 2.53-2.02 5.18-.8 1.96-.81 3.75-.01 1.95.19 3.9l-.11 70.06-10.61-1.56q-.51-.07-.51-.58.15-41.19.14-76.01-.01-2.28.99-3.93c1-1.67 2-3.49 2.68-5.32q4.52-12.02 9.59-25.35 9.86-25.94 19.03-50.54 6.4-17.17 11.91-35.64a1.15 1.14-75.1 0 0-.83-1.44l-7.41-1.74q-.47-.12-.51-.6l-2.68-28.08a5.21 5.18-36 0 1 .41-2.54c2.71-6.18 5.77-12.38 5.95-19a.84.84 0 0 1 .56-.76c9.32-3.17 15.42-11.45 18.36-20.51 3.58-11.04.06-22.28-8.99-30.07q-.89-.76-.75-1.9c1.04-8.1 1.38-17.49.84-25.49q-1.52-22.24-16.9-38.26-13-13.56-31.08-17.83-11.69-2.76-26.28-.31-10.84 1.82-18.97 6.22-15.22 8.24-23.16 21.35-7.78 12.83-9.2 26.27-1.07 10.12-.14 21.79c.17 2.25.75 4.44.97 6.71q.05.56-.38.92c-10.9 9.06-13.84 22.57-7.95 35.42 3.41 7.44 9.44 12.43 16.66 16.42a1.5 1.49-81.1 0 1 .75 1.04c1.21 6.53 2.78 11.94 6.25 17.68q.94 1.56.88 3.17-.53 13.93-3.13 27.81-.09.5-.58.65c-1.45.46-2.96.61-4.41 1.09q-9.51 3.21-18.11 6.29-13.79 4.94-29.72 12.68c-20.93 10.17-44.08 24.21-45.43 50.46q-.19 3.84-.08 7.35a.21.2-54.7 0 1-.4.07l-6.3-21.09q.38-7.14 5.33-14.21 6.69-9.56 13.6-14.94c8.92-6.95 17.84-11.74 27.45-16.94 3.67-1.98 7.6-3.5 11.48-5.19 4.47-1.95 8.74-4.32 13.58-5.93q10.97-3.63 22.46-7.57a1.7 1.7 0 0 0 1.12-1.32q1.12-6.4 2.16-13.59.45-3.07-.59-5.35-2.02-4.43-2.55-5.97l-2-7.61q-.13-.49-.55-.78-4.9-3.42-7.98-6.33-10.02-9.49-12.39-22.51-2.89-12.58 1.46-23.61 2.67-6.84 7.64-12.25.96-1.04.58-2.39-.64-2.33-.73-5.38-.23-8.8.39-17.44 1.57-12.92 8.1-24.33a.5.49 19.9 0 0-.35-.73q-.62-.1-1.18.31-20.93 15.6-37.04 34.54-2.39 2.81-5.88 7.57c-3.46 4.72-7.33 9.36-10.34 14.21q-2.13 3.43-4.14 6.86-1.12 2.13-2.34 4.13-1.33 2.19-1.99 4.3-.79 2.52-2.41 4.88-1.35 1.96-2.25 4.52-.74 2.12-1.82 4.26-3.93 7.79-6.2 16.28-5.47 16.45-8.53 33.81l-1.22 4.12q-3.59 8.07-7.17 16.23-.69 1.58-1.53 4.59-.66 2.35-1.69 4.59-2.39-47.68 17.51-90.39 4.56-9.77 10.34-19.57 20.86-35.28 53.03-60.03 23.02-17.7 51.28-28.44c31.34-11.92 65.76-14.93 99.04-10.8q9.86 1.22 20.31 3.86 23.57 5.94 45.56 17.02 16.46 8.29 29.64 18.42 8.08 6.21 15.41 12.69 26.48 23.38 43.37 56.21 19.2 37.35 22.81 78.94zM258.45 71.36q14.59 13.7 20.1 33.22 2.38 7.56 2.77 17.1.55 8.28-.79 18.11-.07.5.27.87 6.48 7.26 9.46 15.88 3.06 13.71-1.72 26.58a.64.64 0 0 0 .43.84q.37.1.91-.26 14.14-9.58 30.48-13.35 8.49-1.67 16.79-.69 3.29.39 5.75-.02c7.89-1.31 15.31-1.02 23.13-.08q2.8.33 6.94-.12 7.47-.81 15.14.47 12 2.9 22.84 9.26 13.33 6.57 23.98 16.22 1.04.95.69-.42-.44-1.73-1.31-4.06-5.78-15.41-13.18-30.14-5.03-9.09-8.17-14.24-15.01-24.56-38.82-44.01Q326.3 63.45 265.97 58c-9.42-.85-19.04-.69-28.46-.93q-2.27-.06-.17.8 11.59 4.74 21.11 13.49z"/><path fill="#358ea9" d="m421.13 160.77.03 1.1q.01.48-.45.35-.31-.08-.56-.33-.31-.29-.3-.72.02-.55-.57-.82-.36-.16-.63-.46l-3.09-3.45q-1.36-1.5-3.03-2.99-6.69-5.94-10.07-9.97-5.29-6.29-9.75-9.63-14.69-13.61-23.58-20.23-7.12-5.3-23.74-15.57-1.93-1.19-3.92-2.18c-3.33-1.65-6.51-3.71-9.89-5.18q-23.87-10.35-47.94-16.25c-6.56-1.61-14.06-2.75-20.64-3.59q-1.98-.25-4.55.51-9.52-8.75-21.11-13.49-2.1-.86.17-.8c9.42.24 19.04.08 28.46.93q60.33 5.45 108.17 44.52 23.81 19.45 38.82 44.01 3.14 5.15 8.17 14.24z"/><path fill="#fefffe" d="m412.13 75.49-5.97-5.73a.39.39 0 0 1-.01-.55l3.7-3.83a.39.39 0 0 1 .55-.01l17.15 16.75a.39.39 0 0 1 .01.55l-3.69 3.76a.39.39 0 0 1-.55.01l-5.91-5.81a.39.39 0 0 0-.55.01l-16.05 16.49a.39.39 0 0 1-.55.01l-4.19-4.01a.39.39 0 0 1-.01-.55l16.08-16.54a.39.39 0 0 0-.01-.55zm-311.1 8.08 11.7 2.33a.14.14 0 0 1 .07.24l-5.09 5.01a.42.41 27.6 0 1-.39.12l-10.55-2.22q-.52-.11-.91.27l-2.82 2.77q-.47.46-.01.93l5.79 5.94q.44.44-.01.88l-3.79 3.72q-.45.44-.89 0L73.9 82.88a.34.34 0 0 1 .01-.49q3.6-3.37 7.8-7.64c5-5.07 11.01-8.29 16.78-2.33q4.37 4.5 2.09 10.33-.26.68.45.82zm-18.21-.96 5.39 5.5a.44.44 0 0 0 .62 0l4.77-4.66a4.57 3.99-44.4 0 0 .47-6.05l-.42-.43a4.57 3.99-44.4 0 0-6.05.35l-4.77 4.66a.44.44 0 0 0-.01.63z"/><path fill="#3c9eba" d="M392.71 133.85q.13 1.3 1.28 1.66.48.14.78.54.76 1 1.41 2.04c1.21 1.93 3.1 2.44 3.4 5.08q.24 2.23 1.4 3.83.28.38.27.86l-.22 6.18q-.02.38-.24.69l-2.89 3.91q-.31.42-.83.51-.82.13-1.37.82-.43.54-.92.05-2.21-2.21-4.62-3.04-8.89-7.14-18.24-14.17-.66-.49-1.35-.99-12.26-8.91-24.93-15.43c-4.63-2.39-9.25-4.93-14.01-6.88q-11.87-4.84-23.39-8.85-6.43-2.24-14.17-4.13-7.05-1.72-14.33-3.48-.93-.22-1.07.73l-.12.8q-5.51-19.52-20.1-33.22 2.57-.76 4.55-.51c6.58.84 14.08 1.98 20.64 3.59q24.07 5.9 47.94 16.25c3.38 1.47 6.56 3.53 9.89 5.18q1.99.99 3.92 2.18 16.62 10.27 23.74 15.57 8.89 6.62 23.58 20.23z"/><path fill="#fefffe" d="M256.72 107.06q-1.02.24-1.4-1.76-.24-1.22-.71-2-1.98-3.23-4.11-6.37c-10.99-14.01-27.98-20.7-45.51-20.31q-4.65.1-10.49 1.82c-11.08 3.27-21.07 8.97-28.09 18.05l-6.72 10.52q-.08.12-.13-.01-.05-.12-.06-.26 2.69-7.58 7.22-14.24c6.02-8.85 16.69-14.92 26.76-17.92q17.15-5.11 34.32 1.58 20.71 8.06 28.92 30.9z"/><path fill="#222a30" d="M82.82 82.61a.44.44 0 0 1 .01-.63l4.77-4.66a4.57 3.99-44.4 0 1 6.05-.35l.42.43a4.57 3.99-44.4 0 1-.47 6.05l-4.77 4.66a.44.44 0 0 1-.62 0l-5.39-5.5z"/><path fill="#e87a17" d="M250.5 96.93q-.6-.15-.83-.01a.68.64-23.5 0 0-.3.71q1.54 6.37 2.92 12.12.19.79-.19 1.71a.66.66 0 0 1-.99.28q-8.43-6.08-17.85-10.09-5.46-2.31-11.21-3.82.61-10.03-9.1-14.5-3.7-1.7-7.22-1.08-7.68 1.34-10.99 8.73-1.81 4.04-1.16 7.85-5.48.97-8.34 2.26-11 4.96-19.99 10.7-1.72 1.1-1.09-.84.62-1.92.84-4.05.58-5.58 3.08-10.13.12-.22-.01-.43-.09-.14-.23-.24a.36.36 0 0 0-.5.08q-.55.71-.93.31c7.02-9.08 17.01-14.78 28.09-18.05q5.84-1.72 10.49-1.82c17.53-.39 34.52 6.3 45.51 20.31z"/><path fill="#fefffe" d="M222.05 97.83c-3.28 16.83-23.7 16.55-28.47 1q-.65-3.81 1.16-7.85 3.31-7.39 10.99-8.73 3.52-.62 7.22 1.08 9.71 4.47 9.1 14.5z"/><path fill="#358ea9" d="M134.81 116.06q-5.51 2.14-9.82 6.38c-2.67 2.63-5.08 4.13-7.95 6.03q-.37.24-.72.67-.3.38-.69.73-5.38 4.77-11.01 9.82-2.01 1.79-4.78 5.06-2.39 2.82-4.84 4.98-2.11 1.86-4.26 4.46-1.79 2.16-4.65 4.54-.12.1-.27.14-.2.04-.39.09-.45.11-.65.52-.43.86-1.45.59a.55.54 9.5 0 0-.69.49q-.04.59-.65.59-.83-.01-.32-.67l1.06-1.37q.29-.38.4-.85l.85-3.77q2.01-3.43 4.14-6.86c3.01-4.85 6.88-9.49 10.34-14.21q3.49-4.76 5.88-7.57 16.11-18.94 37.04-34.54.56-.41 1.18-.31a.5.49 19.9 0 1 .35.73q-6.53 11.41-8.1 24.33z"/><path fill="#fefffe" d="m436.63 102.56-4.99-6.65a.39.39 0 0 1 .08-.55l4.24-3.12a.39.39 0 0 1 .54.08l14.35 19.13a.39.39 0 0 1-.08.54l-4.19 3.17a.39.39 0 0 1-.55-.07l-5-6.64a.39.39 0 0 0-.54-.08L422.1 122.2a.39.39 0 0 1-.54-.08l-3.5-4.63a.39.39 0 0 1 .07-.55l18.42-13.84a.39.39 0 0 0 .08-.54zM63.71 114.43l7.87-10.74a.38.38 0 0 1 .53-.08l4.1 3.02a.38.38 0 0 1 .09.53l-7.87 10.72a.38.38 0 0 0 .08.53l4.45 3.26a.38.38 0 0 0 .53-.09l9.11-12.46a.38.38 0 0 1 .53-.09l4.11 3.02a.38.38 0 0 1 .09.53l-13 17.72a.38.38 0 0 1-.53.09l-23.46-17.2a.38.38 0 0 1-.08-.53l12.87-17.53a.38.38 0 0 1 .53-.08l4.09 3.01a.38.38 0 0 1 .09.53l-9.01 12.26a.38.38 0 0 0 .08.53l4.27 3.14a.38.38 0 0 0 .53-.09z"/><path fill="#c84f10" d="M193.58 98.83c4.77 15.55 25.19 15.83 28.47-1q5.75 1.51 11.21 3.82 9.42 4.01 17.85 10.09a.66.66 0 0 0 .99-.28q.38-.92.19-1.71-1.38-5.75-2.92-12.12a.68.64-23.5 0 1 .3-.71q.23-.14.83.01 2.13 3.14 4.11 6.37.47.78.71 2 .38 2 1.4 1.76.45 2.89.92 6.12c.76 5.14.39 10.37.48 15.47a.6.59-70.5 0 1-.98.47q-8.64-7.43-18.59-11.44-8.4-3.38-18.12-4.94-6.65-1.07-16.27-.88-8.69.17-15.61 2.05-10.31 2.81-19.73 8.13c-3.51 1.98-6.44 4.51-9.64 6.99a.59.59 0 0 1-.95-.44q-.46-10.99.82-21.1.03-.23.45-.75.01.14.06.26.05.13.13.01l6.72-10.52q.38.4.93-.31a.36.36 0 0 1 .5-.08q.14.1.23.24.13.21.01.43-2.5 4.55-3.08 10.13-.22 2.13-.84 4.05-.63 1.94 1.09.84 8.99-5.74 19.99-10.7 2.86-1.29 8.34-2.26z"/><path fill="#31829c" d="M390.16 156.98q3.61 3.19 6.66 6.56c.77.84 1.7 1.24 2.65 1.82q.42.26.63.7.37.75 1.12 1.12a1.49 1.48-85.6 0 1 .75.88q.53 1.72 2.3 2.83 1.82 1.13 2.98 2.81.28.4.7.64 2.66 1.51 3.76 3.97.24.53-.31.71l-.45.15q-10.84-6.36-22.84-9.26-2.51-4.82-7.1-7.6-2.75-1.66-5.32-3.37-7.11-4.72-17.58-9.87-22.85-11.24-43.87-18.11-12.95-4.23-32.92-9.28-.39-9.54-2.77-17.1l.12-.8q.14-.95 1.07-.73 7.28 1.76 14.33 3.48 7.74 1.89 14.17 4.13 11.52 4.01 23.39 8.85c4.76 1.95 9.38 4.49 14.01 6.88q12.67 6.52 24.93 15.43.69.5 1.35.99 9.35 7.03 18.24 14.17z"/><path fill="#3696b4" d="M134.81 116.06q-.62 8.64-.39 17.44.09 3.05.73 5.38.38 1.35-.58 2.39-4.97 5.41-7.64 12.25-.32-.41-.3-1.01.01-.32.06 0 .05.36-.33.61-.14.09-.25-.05-.09-.12-.24-.17-.32-.1-.57.14-7.33 6.92-15.3 13.88c-4.07 3.56-7.52 7.42-11.05 11.3-2.21 2.43-4.48 5.96-7.2 8.64q-.49-.23-.84-.22-.28.01-.64.44-.55.67-1.33 1.03-.49.23-.21-.23.08-.13-.13-.27-.3-.18-.52.09-.21.23-.21.55.01.78-.61.29-.75-.6-1.77-.84-.43-.11-1.94.07-1.27.16-2.43-.56-.47-.29-.88.08l-1.26 1.11a.1.09 62.7 0 1-.15-.05q-.06-.18-.25-.17-.34 0-.52.29-.48.78-1.38 1.41-.45.33-1.01.23-.48-.08-.72.32-.26.45-.77.41-2.47-.21-4.67 1.12-.28.17-.21-.15.12-.52-.34-.83-.46-.32-.43.24l.03.87q.02.56-.5.77-.45.17-1.09 0 2.27-8.49 6.2-16.28 1.08-2.14 1.82-4.26.9-2.56 2.25-4.52 1.62-2.36 2.41-4.88.66-2.11 1.99-4.3 1.22-2 2.34-4.13l-.85 3.77q-.11.47-.4.85l-1.06 1.37q-.51.66.32.67.61 0 .65-.59a.55.54 9.5 0 1 .69-.49q1.02.27 1.45-.59.2-.41.65-.52.19-.05.39-.09.15-.04.27-.14 2.86-2.38 4.65-4.54 2.15-2.6 4.26-4.46 2.45-2.16 4.84-4.98 2.77-3.27 4.78-5.06 5.63-5.05 11.01-9.82.39-.35.69-.73.35-.43.72-.67c2.87-1.9 5.28-3.4 7.95-6.03q4.31-4.24 9.82-6.38z"/><path fill="#fefffe" d="M228.09 125.52q-25.74-6.36-48.61 4.93-5.39 2.67-11.52 7.26 6.27-8.13 14.28-12.03 16.4-7.98 35.02-4.47 3 .56 10.83 4.31z"/><path fill="#358ea9" d="M281.32 121.68q19.97 5.05 32.92 9.28 21.02 6.87 43.87 18.11 10.47 5.15 17.58 9.87 2.57 1.71 5.32 3.37 4.59 2.78 7.1 7.6-7.67-1.28-15.14-.47-4.14.45-6.94.12c-7.82-.94-15.24-1.23-23.13.08q-2.46.41-5.75.02-8.3-.98-16.79.69-2.47-1.24-5.13-2.72-2.13-1.18-3.72-1.23-.62-.02-1.15-.36-2.69-1.69-5.97-2.36-2.63-.53-5.1-1.47-2.52-.97-5.34-1.77-.66-.18-.87-.83-.31-.93-1.29-1.19-.51-.13-.64-.65-.55-2.33-.89-1.23-2.98-8.62-9.46-15.88-.34-.37-.27-.87 1.34-9.83.79-18.11z"/><path fill="#384048" d="M228.09 125.52q3.96.66 5.52 1.86c2.51 1.93 5.34 3.4 7.64 5.42 3.22 2.82 6.81 5.65 9.15 9.01q3.34 4.81-1.38 1.33-4.1-3.03-8.48-6.05-2.81-1.94-6.2-3.52c-2.84-1.33-5.6-2.72-8.62-3.67-9.79-3.1-19.71-4.27-29.95-1.71q-13.39 3.34-24 11.11-1.94 1.42-4 2.47-2.26 1.15-4.08 2.73-2.55 2.22-1.08-.82 1.68-3.46 5.35-5.97 6.13-4.59 11.52-7.26 22.87-11.29 48.61-4.93z"/><path fill="#fefffe" d="M446.75 147.89c5.56-2.43-6.71-16.89 5.87-20.81q5.47-1.71 9.48 2.97 4.68 5.44 3.78 13.5-.07.62-.68.55l-4.76-.5q-.72-.08-.62-.8c.44-3.09-.06-7.28-2.63-9.42a2.35 2.34 42.1 0 0-3.15.15q-1.14 1.16-.79 2.86c1.41 6.7 4.44 15.22-4.92 17.71q-5.15 1.37-9.02-3.29-5.57-6.67-3.87-15.99.05-.28.33-.22l5.62 1.19q.17.03.13.2-1.49 6.63 2.2 11.17a2.59 2.58 58.5 0 0 3.03.73zm-404.99-20.8c5.87 3.17 12.14 6.07 17.86 9.52 9.25 5.58 4.52 17.9-4.64 20.1q-.29.07-.39-.21l-1.99-5.18a.28.27 73.2 0 1 .19-.37c4.32-.99 8.31-5.99 2.74-8.97q-8.23-4.41-16.94-8.9-.46-.24-.21-.71l2.7-5.08q.23-.44.68-.2z"/><path fill="#3696b4" d="M392.71 133.85q4.46 3.34 9.75 9.63 3.38 4.03 10.07 9.97 1.67 1.49 3.03 2.99l3.09 3.45q.27.3.63.46.59.27.57.82-.01.43.3.72.25.25.56.33.46.13.45-.35l-.03-1.1q7.4 14.73 13.18 30.14.87 2.33 1.31 4.06.35 1.37-.69.42-10.65-9.65-23.98-16.22l.45-.15q.55-.18.31-.71-1.1-2.46-3.76-3.97-.42-.24-.7-.64-1.16-1.68-2.98-2.81-1.77-1.11-2.3-2.83a1.49 1.48-85.6 0 0-.75-.88q-.75-.37-1.12-1.12-.21-.44-.63-.7c-.95-.58-1.88-.98-2.65-1.82q-3.05-3.37-6.66-6.56 2.41.83 4.62 3.04.49.49.92-.05.55-.69 1.37-.82.52-.09.83-.51l2.89-3.91q.22-.31.24-.69l.22-6.18q.01-.48-.27-.86-1.16-1.6-1.4-3.83c-.3-2.64-2.19-3.15-3.4-5.08q-.65-1.04-1.41-2.04-.3-.4-.78-.54-1.15-.36-1.28-1.66z"/><path fill="#d99870" d="m238.2 144.6-1.17.36q-.53.16-.28.65l.18.36q-7.63-2.95-14.93-1.29-2.85.65-2.25 2.97-.48.08-.55-.75-.03-.5-.51-.68-.51-.19-1.23-.16-9.98-3.09-19.52 1.21-.83-.08-1.63.43c.05-2.78-3.08-3.35-5.15-3.43-3.7-.14-8.14-.58-11.56 1.09q-3.65 1.78-6.43 4.73-1.24 1.32.56 1.09 4.2-.53 8.88-1.61c4.17-.97 7.55.14 11.61.38l-3.03.37a1.3 1.29 16.6 0 0-.84.45q-.87.99-.08 1.9c-6.64-3.1-14.36-.4-17.37 6.31q-.15.33.17.52.17.09.34 0-2.77 2.76-6.76 5.15-2.34 1.39-4.16 4.54-1.26-.4-2.33.55l-1.2-9.22a1.58 1.57-24.3 0 1 .52-1.37q4.87-4.25 9.7-8.49 11.95-10.52 27.61-13.7 22.56-4.57 41.41 7.64z"/><path fill="#252122" d="m196.31 147.7-2.09 2.25c-4.06-.24-7.44-1.35-11.61-.38q-4.68 1.08-8.88 1.61-1.8.23-.56-1.09 2.78-2.95 6.43-4.73c3.42-1.67 7.86-1.23 11.56-1.09 2.07.08 5.2.65 5.15 3.43zm40.62-1.73q3.62 2.24 5.98 5.11 1.44 1.74-.67.93c-4.39-1.69-8.53-2.91-13.43-2.75q-3.57.12-7.07.33-1.5.09-1.99-1.94-.6-2.32 2.25-2.97 7.3-1.66 14.93 1.29z"/><path fill="#fcca9e" d="M217.46 146.06q.62.4.81.95.13.39-.12.73c-5 6.64-5.4 14.92-4.78 22.98q.03.39.39.52.6.22.67-.41c.37-3.68 2.5-5.53 3.57-8.74q.15-.45.55-.7l2.09-1.33q.82-.14.49.13-1.27 3.13 2.23 5.45 7.54 5.01 15.55.23 3.07-1.82 2.51-6.56 3.12 1.71 5.97 3.7c1.62 1.13 3.12 3.15 3.82 4.92q1.7 4.32-.05 7.02-2.54 3.93-5.26 7.74-4.03 5.65-8.18 11.41-3.2-2.37-5.24-2.79c-10.12-2.1-21.37.73-31.98-.57q-12.16-1.5-21.69 2.73-2.71-4.69-6.71-8.35-2.2-2.02-3.71-4.6-3.29-5.62-5.9-11.33 1.82-3.15 4.16-4.54 3.99-2.39 6.76-5.15l1.07-.52q-.55 5.13 2.82 7.21 6.42 3.96 13.91.34 3.96-1.91 4.1-5.45.53.34.58 1.08.03.48.44.74 3.47 2.17 4.84 6.08.13.36.43.44.55.15.53-.42-.17-4.89-.38-9.77-.14-3.5-.82-5.35-.95-2.6-2.81-4.75-.86-.98-.18-1.86 9.54-4.3 19.52-1.21zm-13.82 39.69c-1.77-.21-3.04-1.03-4.62-1.72q-2.35-1.01-1.21 1.28 1.36 2.73 4.61 3.17 3.93.54 8.67.37 4.83-.18 7.08-3.85.25-.41.12-.88a.64.63-21.6 0 0-.9-.38q-5.89 2.97-13.75 2.01z"/><path fill="#eaab80" d="m238.2 144.6 17.94 14.33a2.58 2.57-67.1 0 1 .94 2.33q-1.55 11.89-4.34 25.34c-1.82 8.79-5.32 17.05-10.41 24.01q-1.36 1.85-1.28-.44.14-3.91-.09-8.17-.25-4.56-3.24-7.9 4.15-5.76 8.18-11.41 2.72-3.81 5.26-7.74 1.75-2.7.05-7.02c-.7-1.77-2.2-3.79-3.82-4.92q-2.85-1.99-5.97-3.7-.18-.36-.24-.23.58.09.65.03a.99.96 52.9 0 0 .15-1.24c-3.39-5.31-10.71-8.29-16.57-5.15q-4.01 2.14-4.77 7.34l-2.09 1.33q-.4.25-.55.7c-1.07 3.21-3.2 5.06-3.57 8.74q-.07.63-.67.41-.36-.13-.39-.52c-.62-8.06-.22-16.34 4.78-22.98q.25-.34.12-.73-.19-.55-.81-.95.72-.03 1.23.16.48.18.51.68.07.83.55.75.49 2.03 1.99 1.94 3.5-.21 7.07-.33c4.9-.16 9.04 1.06 13.43 2.75q2.11.81.67-.93-2.36-2.87-5.98-5.11l-.18-.36q-.25-.49.28-.65l1.17-.36zm-40.26 2.67q-.68.88.18 1.86 1.86 2.15 2.81 4.75.68 1.85.82 5.35.21 4.88.38 9.77.02.57-.53.42-.3-.08-.43-.44-1.37-3.91-4.84-6.08-.41-.26-.44-.74-.05-.74-.58-1.08-.43-.15-.27-.27.29-.4.2-.8-1.11-4.76-4.97-7.34-.79-.91.08-1.9a1.3 1.29 16.6 0 1 .84-.45l3.03-.37 2.09-2.25q.8-.51 1.63-.43z"/><path fill="#222a30" d="M190.27 152.67q3.86 2.58 4.97 7.34.09.4-.2.8-1.8-2.13-3.88-3.96-.18-.17-.41-.06-.39.19-.21.59c3.9 8.42-7.49 12.79-11.69 6.46-1.52-2.3-.98-5.12-.08-7.8a.39.39 0 0 0-.58-.46q-2.23 1.4-3.71 3.4l-1.07.52q-.17.09-.34 0-.32-.19-.17-.52c3.01-6.71 10.73-9.41 17.37-6.31z"/><path fill="#212838" d="M241.18 159.08q-1.66-2.03-3.98-3.11-.85-.4-.55.49c1.58 4.76 1.62 8.67-3.86 10.07-3.53.9-7.87-.87-8.49-4.82q-.3-1.9.8-3.45 1.55-2.18-.84-.98-1.09.54-3.13 2.91.33-.27-.49-.13.76-5.2 4.77-7.34c5.86-3.14 13.18-.16 16.57 5.15a.99.96 52.9 0 1-.15 1.24q-.07.06-.65-.03z"/><path fill="#31829c" d="M126.93 153.52q-4.35 11.03-1.46 23.61-2.48 2.04-4.89 4.32-2.54 2.4-4.96 4.33-3.59 2.85-7.24 5.51-3.78 2.75-7.38 5.94-8.08 7.16-18.73 18.49-8.38 8.93-12.25 15.36-.69 1.14-1.72 1.98-1.06.85-1.85 2.07-1.55 2.38-2.89 4.9-1.31 2.45-3.04 4.77-1.26 1.69-2.59 3.47-.98 1.32-1.22 3.5-.68 5.97-.62 11.93 0-7.3.01-14.62 0-3.76.54-9.13.45-4.61.58-9.16l1.22-4.12q1.96-2.73 2.03-6.49a.02.02 0 0 1 .03-.01q.12.23.24.2.27-.06.29-.34.2-2.72 1.27-5.77.14-.39.48-.15 1.31.93 3.46.56 1.67-.28 2.58-1.81 1.9-3.21 4.15-6.01a1.74 1.7 7.8 0 1 .7-.52q4.56-1.84 7.15-5.23c.92-1.19 1.18-2.58 2.28-3.75q4.67-4.96 8.65-10.49c2.72-2.68 4.99-6.21 7.2-8.64 3.53-3.88 6.98-7.74 11.05-11.3q7.97-6.96 15.3-13.88.25-.24.57-.14.15.05.24.17.11.14.25.05.38-.25.33-.61-.05-.32-.06 0-.02.6.3 1.01z"/><path fill="#fefffe" d="M195.04 160.81q-.16.12.27.27-.14 3.54-4.1 5.45-7.49 3.62-13.91-.34-3.37-2.08-2.82-7.21 1.48-2 3.71-3.4a.39.39 0 0 1 .58.46c-.9 2.68-1.44 5.5.08 7.8 4.2 6.33 15.59 1.96 11.69-6.46q-.18-.4.21-.59.23-.11.41.06 2.08 1.83 3.88 3.96zm46.14-1.73q.06-.13.24.23.56 4.74-2.51 6.56-8.01 4.78-15.55-.23-3.5-2.32-2.23-5.45 2.04-2.37 3.13-2.91 2.39-1.2.84.98-1.1 1.55-.8 3.45c.62 3.95 4.96 5.72 8.49 4.82 5.48-1.4 5.44-5.31 3.86-10.07q-.3-.89.55-.49 2.32 1.08 3.98 3.11zm28.68 1.06q-2.87 2.1-3.79 3.67-1.57 2.73-2.92 5.63a.47.46 47.4 0 1-.86-.04q-.02-.07-.19-.35.84-6.65 4.42-12.92a.31.31 0 0 1 .52-.03l2.82 4.04zm-116.07 10.92q-1.11-.58-1.38-2.3-.26-1.61-.68-2.42-2.05-3.94-4.49-7.74.94-1.11 1.27-2.16a.49.49 0 0 1 .87-.13q4.58 6.53 4.41 14.75z"/><path fill="#3696b4" d="M320.36 170.35q-16.34 3.77-30.48 13.35-.54.36-.91.26a.64.64 0 0 1-.43-.84q4.78-12.87 1.72-26.58.34-1.1.89 1.23.13.52.64.65.98.26 1.29 1.19.21.65.87.83 2.82.8 5.34 1.77 2.47.94 5.1 1.47 3.28.67 5.97 2.36.53.34 1.15.36 1.59.05 3.72 1.23 2.66 1.48 5.13 2.72z"/><path fill="#eaab80" d="M147.24 158.6q2.44 3.8 4.49 7.74.42.81.68 2.42.27 1.72 1.38 2.3l.37 13.7q.04 1.48-1.01.43c-3.26-3.23-6.29-6.83-7.53-11.45q-2.1-7.8 1.62-15.14zm122.62 1.54q4.93 14.95-6.96 25.49-.75.66-.75-.34l-.05-16.24q.17.28.19.35a.47.46 47.4 0 0 .86.04q1.35-2.9 2.92-5.63.92-1.57 3.79-3.67zm-107.37 9.05q2.61 5.71 5.9 11.33 1.51 2.58 3.71 4.6 4 3.66 6.71 8.35-3.49 4.75-3.24 10.54.16 3.73-.04 7.23-.04.66-.46.15-2.84-3.41-4.69-6.72-5.54-9.95-7.3-19.67-2.15-11.82-2.92-15.26 1.07-.95 2.33-.55z"/><path fill="#358ea9" d="M125.47 177.13q2.37 13.02 12.39 22.51 3.08 2.91 7.98 6.33.42.29.55.78l2 7.61q-1.7 1.09-4.02 1.72-3.32.9-4.14 1.2-9.73 3.61-19.19 7.53-5.83 2.41-15.36 7.83-18.99 10.79-34.28 23.99-6.85 5.91-12.56 13.54a.98.98 0 0 1-1.75-.43l-1-6.04q-.06-5.96.62-11.93.24-2.18 1.22-3.5 1.33-1.78 2.59-3.47 1.73-2.32 3.04-4.77 1.34-2.52 2.89-4.9.79-1.22 1.85-2.07 1.03-.84 1.72-1.98 3.87-6.43 12.25-15.36 10.65-11.33 18.73-18.49 3.6-3.19 7.38-5.94 3.65-2.66 7.24-5.51 2.42-1.93 4.96-4.33 2.41-2.28 4.89-4.32z"/><path fill="#552423" d="M203.64 185.75q7.86.96 13.75-2.01a.64.63-21.6 0 1 .9.38q.13.47-.12.88-2.25 3.67-7.08 3.85-4.74.17-8.67-.37-3.25-.44-4.61-3.17-1.14-2.29 1.21-1.28c1.58.69 2.85 1.51 4.62 1.72z"/><path fill="#358ea9" d="M91.75 186.86q-3.98 5.53-8.65 10.49c-1.1 1.17-1.36 2.56-2.28 3.75q-2.59 3.39-7.15 5.23a1.74 1.7 7.8 0 0-.7.52q-2.25 2.8-4.15 6.01-.91 1.53-2.58 1.81-2.15.37-3.46-.56-.34-.24-.48.15-1.07 3.05-1.27 5.77-.02.28-.29.34-.12.03-.24-.2a.02.02 0 0 0-.03.01q-.07 3.76-2.03 6.49 3.06-17.36 8.53-33.81.64.17 1.09 0 .52-.21.5-.77l-.03-.87q-.03-.56.43-.24.46.31.34.83-.07.32.21.15 2.2-1.33 4.67-1.12.51.04.77-.41.24-.4.72-.32.56.1 1.01-.23.9-.63 1.38-1.41.18-.29.52-.29.19-.01.25.17a.1.09 62.7 0 0 .15.05l1.26-1.11q.41-.37.88-.08 1.16.72 2.43.56 1.51-.18 1.94-.07 1.02.24 1.77.84.62.49.61-.29 0-.32.21-.55.22-.27.52-.09.21.14.13.27-.28.46.21.23.78-.36 1.33-1.03.36-.43.64-.44.35-.01.84.22z"/><path fill="#fefffe" d="M380.41 193.63q-3.57-.87-6.95-1.44-16.84-2.8-33.73-.73-2.1.25-5.87 1.19-2.68.66-5.87 1.23 6.36-3.93 14.02-5.14c6.02-.95 11.22-1.93 17.33-1.16 7.52.96 14.92 1.93 21.07 6.05zm53.6 27.64q-.84-.46-1.2-1.48-.18-.51-.55-.89-4.17-4.26-8.28-6.83-10.98-6.87-22.88-12.19-1.69-.75-.74.83c4.2 7.08 8.12 16.04 8.89 24.23.21 2.3 1.1 4.66 1.09 7.13q-3.66-17.62-13.8-29.82-7.76-9.32-18.45-14.51-.56-.28.06-.16c5.07.93 10.19 2.27 14.83 4.67 2.66 1.38 5.43 2.38 8.08 3.72q12.69 6.42 24.64 15.79c3.11 2.43 7.27 5.65 8.31 9.51zM298.8 232.56q.38-4.45 1.65-9.92c1.95-8.4 4.4-16.31 9.22-22.42a.48.48 0 0 0-.45-.77q-.82.12-1.63.49c-7.24 3.32-32.14 15.46-32.27 23.56q-.04 2.2.49 7.14l-2.23-8.82q-.13-.5.12-.96 1.15-2.1 2.91-3.87c11.61-11.67 27.86-20.39 43.11-26.29q4.43-1.72 10.07-2.83 1.06-.21.11.31c-2.94 1.59-5.92 2.74-8.59 4.91q-7.98 6.48-13.66 17.24-6.05 11.42-8.85 22.23z"/><path fill="#384048" d="M380.41 193.63q.67.08 1.47.77a.62.61 54 0 1-.16 1.03q-1.01.41-2.13.68-1.79.43-1.83 1.88-.04 1.03.66 2.12 1.39 2.15 2.68 5.16a.61.6-6.3 0 1-.67.83c-4.24-.78-8.77-.68-12.33 2.21q-6.05 4.91-5.52 12.36c.29 4.17 2.33 7.44 5 10.42a.91.9 50.4 0 0 1.22.12q.5-.38.69-1.03 1.24-4.29 1.99-7.86a.97.97 0 0 1 1.75-.35q.35.52.52 1.14 1.04 3.9 4.1 5.46c2.15 1.1 4.83.66 7.18.6a1.94 1.91-14.2 0 1 1.74 1.02c4.71 8.78 4.48 19.75.86 28.68-5.73 14.09-20.03 16.94-31.53 7.46a.88.87-34 0 1 .3-1.51c3.13-.99 6.15-2.54 7.99-5.38q1.78-2.73 4.31-4.68c5.44-4.19 4.14-10.29 1.17-15.36-3.35-5.72-12.88-7.38-18.72-6.68q-2.82.34-6.22 2.06c-6.05 3.07-8.34 8.34-7.88 15.36a2.09 2.07-67.7 0 0 .5 1.21q3.87 4.45 8.15 9.61c1.83 2.2 4.63 2.99 7.29 3.72a.95.94 29.8 0 1 .43 1.57c-2.96 3.05-8.91 4.95-12.66 5.35-9.93 1.04-16.74-4.41-19.89-13.35-2.78-7.91-3.6-19.46 1.16-27.07q.67-1.08 1.72-1.79.55-.36 1.2-.3c5.79.51 9.93.16 11.25-6.5a.54.54 0 0 1 .95-.22q2.96 3.82 1.89 8.74a.45.45 0 0 0 .64.5c3.06-1.53 5.86-4.35 6.51-7.8 1.15-6.08.14-13.13-5.9-16.22q-4.23-2.17-8.47-1.83-1.83.15-3.73 1.14a1.72 1.72 0 0 0-.69.66q-.61 1.03-1.88 1.05-1.16.02-1.79 1-.2.31-.53.46-.84.37-1.3-.35-.28-.45-.27-1.04.03-1.6 0-3.13-.04-1.28-.62-3.02-.56-1.69-.77-3.55a1.49 1.48 59.7 0 1 .27-1.05l.97-1.35q.21-.29.56-.25.13.01.26.03.27.02.52-.09l5.17-2.39q3.19-.57 5.87-1.23 3.77-.94 5.87-1.19 16.89-2.07 33.73.73 3.38.57 6.95 1.44zm-81.61 38.93-1.14 7.88a.27.26 34.3 0 1-.49.09c-1.18-2.01-3.16-3.67-5.45-4.21q-5.55-1.32-10.98-1.24-3.48.05-4.93-4.44-.53-4.94-.49-7.14c.13-8.1 25.03-20.24 32.27-23.56q.81-.37 1.63-.49a.48.48 0 0 1 .45.77c-4.82 6.11-7.27 14.02-9.22 22.42q-1.27 5.47-1.65 9.92zm135.21-11.29q-1.5 5.95-5.15 11.62c-1.54 2.4-3.54 3.74-6.39 3.91q-4.36.26-8.24 2.86c-.85.57-1.2 1.51-1.15 2.53q.04.73-.5.24-.43-.39-.51-1.17-.34-3.35-1.73-9.19c.01-2.47-.88-4.83-1.09-7.13-.77-8.19-4.69-17.15-8.89-24.23q-.95-1.58.74-.83 11.9 5.32 22.88 12.19 4.11 2.57 8.28 6.83.37.38.55.89.36 1.02 1.2 1.48z"/><path fill="#fefffe" d="M229.1 202.06q-4.52 2.63-9.05 3.89-4.06 1.12-8.91.85-6.22-.34-11.98-.6-2.43-.1-4.86-.74-2.78-.74-5.59-1.4-.49-.11-.8-.5-.39-.51-.5-1.07.34-.36.84-.24 17.44 4.12 32.01 1.35 6.37-1.21 8.84-1.54z"/><path fill="#fcca9e" d="M229.1 202.06q2.1 3.57 1.9 8.56-.13 3.1-.87 6.2c-.83 3.44-2.84 7.09-6.86 7.2-5.89.17-11.3-7.01-7.99-12.34a.62.62 0 0 0-.62-.94q-6.71 1.09-13.18.19a.33.33 0 0 0-.36.44q2.19 6.43-2.62 10.63c-3.73 3.26-9.05 2.64-10.95-2.24q-3.07-7.91-.99-16.24.08-.32.31-.56.29-.31.54-.47.11.56.5 1.07.31.39.8.5 2.81.66 5.59 1.4 2.43.64 4.86.74 5.76.26 11.98.6 4.85.27 8.91-.85 4.53-1.26 9.05-3.89z"/><path fill="#fde3e5" d="M325.58 212.94q5.54-1.44 8.11.34 1.75 1.21-.29.61c-1.82-.54-4.28-.96-6.17-.37q-1.23.38-1.52.38-3.8 0-.13-.96z"/><path fill="#fefffe" d="M378.72 213.42q-1.2.22-2.57.51-.97.21-.13-.31c3.85-2.36 8.36-.99 11.78 1.31q.08.05.03.14v.01q-.06.11-.18.06c-2.5-1.08-6.18-2.21-8.93-1.72z"/><path fill="#939c5a" d="M148.39 214.36q.53 1.54 2.55 5.97 1.04 2.28.59 5.35-1.04 7.19-2.16 13.59a1.7 1.7 0 0 1-1.12 1.32q-11.49 3.94-22.46 7.57c-4.84 1.61-9.11 3.98-13.58 5.93-3.88 1.69-7.81 3.21-11.48 5.19-9.61 5.2-18.53 9.99-27.45 16.94q-6.91 5.38-13.6 14.94-4.95 7.07-5.33 14.21-3.38-9.46-4.89-19.62-2.21-14.95-2.63-29.55 1.03-2.24 1.69-4.59.84-3.01 1.53-4.59 3.58-8.16 7.17-16.23-.13 4.55-.58 9.16-.54 5.37-.54 9.13-.01 7.32-.01 14.62l1 6.04a.98.98 0 0 0 1.75.43q5.71-7.63 12.56-13.54 15.29-13.2 34.28-23.99 9.53-5.42 15.36-7.83 9.46-3.92 19.19-7.53.82-.3 4.14-1.2 2.32-.63 4.02-1.72z"/><circle cx="327.85" cy="220.53" r="2.85" fill="#fefffe"/><circle cx="381.44" cy="220.48" r="2.63" fill="#fefffe"/><path fill="#b47051" d="M245.96 241.76q-1.43 1.71-2.66 3.33-1.5 1.98-3.15 2.76-2.86 1.36-5.6 3.14-2.72 1.77-6.02 2.5-6.78 1.51-12.56 2.28-6.61.87-12.73-.25-5.94-1.1-18.31-4.41-6.73-4.88-13.82-12.01l.38-7.73a.89.89 0 0 1 1.59-.51c8.06 10.19 19.67 16.66 32.57 17.24q19.81.89 33.65-12.8c1.85-1.83 3.33-3.59 4.98-5.51q.6-.71.68.21l1 11.76z"/><path fill="#939c5a" d="M455.13 234.11q1.42 29.85-3.55 55.64-3.72 19.32-13.02 41.57-1.31 3.14-4.13 8.13-.23-15.76-3.37-27.94-3.37-13.11-11.22-23.7a.6.59-20.3 0 1 .44-.94q6.43-.47 12-2.56a1.33 1.33 0 0 0 .82-.87q2.39-7.84 5.32-17.33 1.31-4.25 3.66-8.28c4.51-7.75 7.76-15.73 9.12-24.63q.26-1.71.79-.07 1.07 3.35 1.84 6.76 1.35 5.95 1.48-.15.05-1.9-.18-5.63z"/><path fill="#fefffe" d="M369.27 247q-2.13-3.19-4.52-3.9c-3.45-1.03-6.38-.11-9.64.88q-.55.17-1.1.01c-4.78-1.33-9.65-2.62-12.94 2.32q-.21.52-.63.82-.85.58-.66-.43 1.44-7.72 9.49-9.47 8.18-1.78 14.73 1.5 4.81 2.41 5.27 8.27z"/><path fill="#eaab80" d="M171.11 239.1q7.09 7.13 13.82 12.01 1.17 2.55 3.06 4.16 7.33 6.25 16.26 10.1-1.91.06-3.58-1.11-.49-.34-1.08-.38-2.07-.12-3.95.39-1.38.38-2.73.03-1.24-.33-2.09-1.24c-2.49-2.7-5.23-4.45-7.64-7.48q-2.69-3.4-5.32-6.46-.7-.82-1.75-1.35a.6.6 0 0 0-.87.56c.16 4.09 1.63 7.57 3.83 11.14q4.01 6.49 7.66 12.03c1.43 2.16 2.75 4.18 4.83 5.88q4.25 3.5 8.48 7.25-21.43-2.99-32.92-20.81a1.02 1.01 56.7 0 1 .28-1.39q1.33-.9 1.48-2.92.69-9.48 2.23-20.41z"/><path fill="#d99870" d="M245.96 241.76q.8 7.63 1.09 14.62.13 3.02 1.69 5.62a1.33 1.32 41 0 1 .09 1.2c-2.41 5.92-8.29 11.26-13.48 14.49q-5.86 3.66-12.18 5.72-7.07 2.32-14.58 1.97 3.03.12 6.1-.52.8-.17 1.73-.76.83-.53 1.73-.93 1.45-.66 2.49-1.51 9.21-7.54 14.07-18.57c.93-2.12 1.91-4 1.77-6.36a.68.68 0 0 0-1.19-.41q-5.32 5.95-12.29 9.25c-6 2.84-12.74 2.44-18.75-.2q-8.93-3.85-16.26-10.1-1.89-1.61-3.06-4.16 12.37 3.31 18.31 4.41 6.12 1.12 12.73.25 5.78-.77 12.56-2.28 3.3-.73 6.02-2.5 2.74-1.78 5.6-3.14 1.65-.78 3.15-2.76 1.23-1.62 2.66-3.33z"/><path fill="#384048" d="M369.27 247q-4.47-2.6-6.79-1.7c-2.92 1.13-3.48 3.65-3.62 6.47q-.04.69-.71.8-3.12.51-6.58.12a1.86 1.85-89.4 0 1-1.63-1.67c-.18-2.04-.38-4.46-2.57-5.38q-1.65-.69-6.3.67c3.29-4.94 8.16-3.65 12.94-2.32q.55.16 1.1-.01c3.26-.99 6.19-1.91 9.64-.88q2.39.71 4.52 3.9z"/><path fill="#fcca9e" d="M204.25 265.37c6.01 2.64 12.75 3.04 18.75.2q6.97-3.3 12.29-9.25a.68.68 0 0 1 1.19.41c.14 2.36-.84 4.24-1.77 6.36q-4.86 11.03-14.07 18.57-1.04.85-2.49 1.51-.9.4-1.73.93-.93.59-1.73.76-3.07.64-6.1.52l-8.55-.75q-4.23-3.75-8.48-7.25c-2.08-1.7-3.4-3.72-4.83-5.88q-3.65-5.54-7.66-12.03c-2.2-3.57-3.67-7.05-3.83-11.14a.6.6 0 0 1 .87-.56q1.05.53 1.75 1.35 2.63 3.06 5.32 6.46c2.41 3.03 5.15 4.78 7.64 7.48q.85.91 2.09 1.24 1.35.35 2.73-.03 1.88-.51 3.95-.39.59.04 1.08.38 1.67 1.17 3.58 1.11z"/><circle cx="478.17" cy="272.96" r="12.36" fill="#939c5a"/><circle cx="21.97" cy="273.3" r="12.02" fill="#939c5a"/><path fill="#fefffe" d="m302.87 285.53-16.49-8.79q10.55-3.5 14.02-12.17.79-1.95.94.15l1.53 20.81zM183.26 439.72l-.06-60.15q.22-1.71-.04-4.5-.19-2.05-1.08-4.33-5.6-14.37-11.2-29.24l-23.86-63.97-2.01-5.62a.82.81 68.9 0 0-1.07-.48q-19.29 7.82-36.68 16.93-6.66 3.49-13 7.62a1.4 1.39-28.9 0 0-.51 1.75c1.23 2.69 2.72 5.05 3.55 7.95q1.51 5.21 3.36 10.29l1.74 5.78q.65 2.84 2.69 10 3.38 11.94 5.77 28.8 2.12 8.12 2.78 16.33-9.13-34.1-24.67-65.33-.85-1.7-2.81-4.27c-2.11-2.76-4.3-2.84-7.4-2.38q-2.16.32-.73-1.33 4.72-5.48 9.26-9.23 3.59-2.98 10.41-6.87 26.24-14.99 55.21-23.65a.53.52-19.4 0 1 .63.3q6.46 15.94 12.36 32.22c7.5 20.64 15.74 41.43 23.08 61.38q2.33 6.32 5.51 12.58.34.66.34 1.4l-.05 70.74q0 .49-.48.36l-11.04-3.08z"/><path fill="#fdb655" d="m282.46 274.8.02 2.06a.66.65-7.1 0 0 .81.62l3.09-.74 16.49 8.79q.91.42-.11 2.9-.49 1.17-1.72 3.76-4.81-.64-10.56-3.82-7.27-4.01-14.64-7.94-4.44-2.38-6.53-1.6l2.93-7.83a.87.87 0 0 1 1.19-.48l9.03 4.28zm-135.44 2.73q-.48-.44-1.05-.68-.45-.19-.9.01-5.52 2.37-10.72 5.23c-2.02 1.1-4.18 1.86-6.23 2.95q-14.42 7.64-28.91 16.93c-.96.62-1.56 1.4-1.36 2.63q.37 2.31 1.31 4.37.71 1.54.97 3.36.26 1.81.53 3.64-1.85-5.08-3.36-10.29c-.83-2.9-2.32-5.26-3.55-7.95a1.4 1.39-28.9 0 1 .51-1.75q6.34-4.13 13-7.62 17.39-9.11 36.68-16.93a.82.81 68.9 0 1 1.07.48l2.01 5.62z"/><path fill="#552423" d="m358.3 278.01-1.38 8.87-2.26 9.76q-.16.65-.3 0l-2.19-10.1q.29-5.59-1.69-8.32.87-.62 2.46-1.25 1.41-.56 2.68-.37 2.02.3 2.68 1.41z"/><path fill="#e87a17" d="m147.02 277.53 23.86 63.97q-9.83.27-13.63-.62-4.98-1.16-9.85-2.06c-7.27-1.36-14.03-3.45-20.95-5.69q-3.68-1.2-7.27-2.94-3.82-1.85-7.98-3.72-1.38-.62-2.18-1.6-.92-1.14-2.01-2.32a1.55 1.48-13.3 0 0-.77-.45q-1.38-.32-2.36-1.37-.38-.41-.81-.05-.42.34-.67 1.07l-1.74-5.78q-.27-1.83-.53-3.64-.26-1.82-.97-3.36-.94-2.06-1.31-4.37c-.2-1.23.4-2.01 1.36-2.63q14.49-9.29 28.91-16.93c2.05-1.09 4.21-1.85 6.23-2.95q5.2-2.86 10.72-5.23.45-.2.9-.01.57.24 1.05.68zm143.46 10.84q-4.06-.33-8.1-.55c-2.62-.14-4.86-.93-7.32-1.57q-2.63-.69-.79 1.31 6.87 7.46 7.19 16.81.13 3.75-.84 5.68-2.05 4.1-7.04 10.14-6.3 4.8-9.57 5.9-7.17 2.44-14.03 4.55 1.37-4.09 2.92-8.88.34-1.06.86-2.06.67-1.29.94-1.99 6.59-17.58 13.21-35.15.56-1.48 1.4-3.73 2.09-.78 6.53 1.6 7.37 3.93 14.64 7.94z"/><path fill="#cb4d58" d="M352.17 286.54q-4.5 5.01-11.44 3.54-1.49-.32-6.15-1.85l-1.94-7.92q-.23-.93.66-.59c5.59 2.14 11.19.94 17.18-1.5q1.98 2.73 1.69 8.32zm6.13-8.53c6.77 2.65 11.3 3.85 17.33 2.19a.57.57 0 0 1 .71.7c-.85 3.15-1.66 6.21-1.92 9.52q-.73 9.15-1.4 13.07c-1.47 8.69-7.91 16.81-17.08 17.56q-4.85.4-9-1.8-5.67-3.01-8.15-9.71 5.08 5.6 11.71 6.56 10.32 1.5 16.25-8.41 2.99-6.02 3.28-16.11a1.2 1.2 0 0 0-1.16-1.24q-2.62-.1-5.38-.32-1.91-.15-6.57-3.14l1.38-8.87z"/><path fill="#bf440f" d="M290.48 288.37q5.75 3.18 10.56 3.82-.46 1.57-2.12 4.42-3.85 6.63-6.04 11.41-1.92 4.2-4.08 8.69-1.96 4.09-3.82 8.64-1.67 4.07-3.62 8.67-11.48 26.95-13.61 60.44-11.04-.56-20.3-5.98c-5.29-3.09-8.15-6.57-11.48-11.4q-.9-1.31-.58-2.97.07-.39-.2-.67-.54-.57-1.47 1.64a.8.62-38 0 0-.05.2l-.67 5.19q-.2-1.95-.19-3.9.01-1.79.81-3.75 1.09-2.65 2.02-5.18.03.44 1.5.54.73.05.27.62-.51.63-.32 1.47a.66.65-22 0 0 .98.41c3.76-2.31 7.23-4.71 10.15-8.25q10.15-12.33 17.41-27.43 1.26-2.63 2.35-4.06 1.48-1.94 2.21-3.97.5-1.42 1-3 .59-1.87 2.39-3.78 4.99-6.04 7.04-10.14.97-1.93.84-5.68-.32-9.35-7.19-16.81-1.84-2 .79-1.31c2.46.64 4.7 1.43 7.32 1.57q4.04.22 8.1.55z"/><path fill="#fe7d8b" d="m352.17 286.54 2.19 10.1q.14.65.3 0l2.26-9.76q4.66 2.99 6.57 3.14 2.76.22 5.38.32a1.2 1.2 0 0 1 1.16 1.24q-.29 10.09-3.28 16.11-6.1 5.37-9.22 5.68-10.82 1.06-16.14-6.89-1.76-2.63-2.6-6.65-.86-4.13-2.45-8.16-.17-.44-.63-.36-.39.07-.66.41l-.47-3.49q4.66 1.53 6.15 1.85 6.94 1.47 11.44-3.54z"/><path fill="#fde3e5" d="M366.75 307.69q-5.93 9.91-16.25 8.41-6.63-.96-11.71-6.56-1.77-3.44-2.46-7.04-.76-3.94-1.28-10.78.27-.34.66-.41.46-.08.63.36 1.59 4.03 2.45 8.16.84 4.02 2.6 6.65 5.32 7.95 16.14 6.89 3.12-.31 9.22-5.68z"/><path fill="#c84f10" d="M273.58 320.19q-1.8 1.91-2.39 3.78-.5 1.58-1 3-.73 2.03-2.21 3.97-1.09 1.43-2.35 4.06-7.26 15.1-17.41 27.43c-2.92 3.54-6.39 5.94-10.15 8.25a.66.65-22 0 1-.98-.41q-.19-.84.32-1.47.46-.57-.27-.62-1.47-.1-1.5-.54l14.34-37q6.86-2.11 14.03-4.55 3.27-1.1 9.57-5.9zm-102.7 21.31q5.6 14.87 11.2 29.24.89 2.28 1.08 4.33.26 2.79.04 4.5-16.6 9.14-33.21 5-5.49-1.36-12.9-4.79-4.08-1.88-7.88-4.68-3.84-2.83-7.32-5.63-2.33-1.86-4.21-4.77-.53-.83-.7-1.76c-.26-1.47-1.64-2.75-2.21-4.19q-.98-2.44-2.87-4.57-.46-.51-.52.18l-.52 6.19q-2.39-16.86-5.77-28.8-2.04-7.16-2.69-10 .25-.73.67-1.07.43-.36.81.05.98 1.05 2.36 1.37a1.55 1.48-13.3 0 1 .77.45q1.09 1.18 2.01 2.32.8.98 2.18 1.6 4.16 1.87 7.98 3.72 3.59 1.74 7.27 2.94c6.92 2.24 13.68 4.33 20.95 5.69q4.87.9 9.85 2.06 3.8.89 13.63.62z"/><path fill="#d99870" d="m326.27 342.4-3.7-.27q-.53-.04-.88-.45-.23-.26-.59-.27-.5 0-.14.34l1 .94-9.89-6.04q-3.55-5.81-5.46-12.37-.34-1.17.49-.28c2.5 2.7 4.61 6.35 6.83 8.74q5.36 5.75 12.34 9.66z"/><path fill="#d55912" d="m312.07 336.65 9.89 6.04q3.32 2.09 6.71 3.91c2.53 1.36 5.05 1.98 7.67 2.95q2.93 1.09 5.91 1.75 25.22 5.62 45.13-10.35 7.66-5.77 10.49-10.32 1.75-2.82 3.71-5.64.94-1.36.48.23-3.8 13.4-14.79 22.78-9.79 8.36-23.88 10.38c-17.71 2.55-35.06-2.56-47.23-15.78q-1.45-1.57-4.09-5.95z"/><path fill="#384048" d="M284.87 426.95q-1.71-20.16.8-40.2c1.1-8.76 3.39-16.98 5.36-25.45q.06-.24.29-.17.23.08.32.3 2.36 6.3 4.64 12.62.09.26.35.35.37.11.31-.27c-1.78-11.17-2.76-23.39-1.64-34.93q.41-4.21.77-8.62-.58-.67.24-1.15.47-.27.38.27-.43 2.49-.22 4.56.28 2.73 1.02 5.52.43 1.62 1.03 2.95.58 1.27.63 2.6c.07 1.67.83 3.28.37 4.95q-.13.47.03.94 1.11 3.36 1.57 5.66.22 1.08.72 1.77.3.4.33.9c.4 6.4-.37 12.71 1.49 19.28q3.39 11.95 7.83 19.74 1.41 2.47-.99.95-3.44-2.16-6.81-5.39a.7.7 0 0 0-1.18.56q.11 1.35.38 2.7 3.23 15.6 14.55 26.35c1.02.97 1.55 2.16 2.67 3.06q1.22.97-.34 1.09c-7.12.51-15.49-12.82-18.12-18.39q-1.76-3.72-2.74.28-2.42 9.91-3.39 19.64-.33 3.29-2.12 8.34c-.85 2.38-.86 5.16-.74 7.71q.06 1.39-.72.23-5.68-8.39-7.07-18.75z"/><path fill="#fefffe" d="M296.07 330.58q-.36 4.41-.77 8.62c-1.12 11.54-.14 23.76 1.64 34.93q.06.38-.31.27-.26-.09-.35-.35-2.28-6.32-4.64-12.62-.09-.22-.32-.3-.23-.07-.29.17c-1.97 8.47-4.26 16.69-5.36 25.45q-2.51 20.04-.8 40.2-2.9-12.84-3.4-28.95-.55-17.45 3.59-34.39 3.16-12.92 6.54-23.02 1.42-4.25 4.47-10.01z"/><path fill="#fdb655" d="M387.38 340.95q-19.91 15.97-45.13 10.35-2.98-.66-5.91-1.75c-2.62-.97-5.14-1.59-7.67-2.95q-3.39-1.82-6.71-3.91l-1-.94q-.36-.34.14-.34.36.01.59.27.35.41.88.45l3.7.27q6.49 3.17 8.98 4.04 7.78 2.74 16 3.02 13.45.45 23.98-2.81 4.59-1.43 12.15-5.7z"/><path fill="#b73d0b" d="m183.2 379.57.06 60.15q-22.74-8.04-37.22-16.8-10.4-6.29-20.17-13.54-3.87-2.88-6.98-6.54-.32-.39-.39-.89-1.59-11.43-2.69-15.7-1.84-7.18-2.17-9.37-.66-8.21-2.78-16.33l.52-6.19q.06-.69.52-.18 1.89 2.13 2.87 4.57c.57 1.44 1.95 2.72 2.21 4.19q.17.93.7 1.76 1.88 2.91 4.21 4.77 3.48 2.8 7.32 5.63 3.8 2.8 7.88 4.68 7.41 3.43 12.9 4.79 16.61 4.14 33.21-5zm84.55 14.89q-.82 15.11 1.33 30.03 1.73 12.07 6.08 24.02.52 1.41-.97 1.62-20.11 2.76-41.3.4l.11-70.06.67-5.19a.8.62-38 0 1 .05-.2q.93-2.21 1.47-1.64.27.28.2.67-.32 1.66.58 2.97c3.33 4.83 6.19 8.31 11.48 11.4q9.26 5.42 20.3 5.98z"/><path fill="#fefffe" d="M94.65 391.48a.31.31 0 0 1 .44-.01l8.61 8.14a15.36 14.63 43.4 0 1 1.1 21.19l-.41.43a15.36 14.63 43.4 0 1-21.21.08l-8.61-8.14a.31.31 0 0 1-.01-.44l20.09-21.25zm.64 8.89L83.48 412.9a.41.41 0 0 0 .01.58l3.56 3.35a8.74 8.58 43.3 0 0 12.25-.25l.6-.64a8.74 8.58 43.3 0 0-.48-12.23l-3.55-3.36a.41.41 0 0 0-.58.02zm317.99 8.57 11.63 2.43a.1.1 0 0 1 .05.17q-2.46 2.64-5.16 5.06-.14.13-.34.08l-10.42-2.29q-.63-.13-1.09.32l-2.76 2.7q-.45.44-.01.89l5.89 6.15a.4.4 0 0 1-.02.58l-4.14 3.92q-.33.31-.64-.02l-20.04-20.92a.45.45 0 0 1 .02-.64q4.09-3.78 8.14-7.82c4.34-4.31 9.72-7.38 15.35-2.86 3.55 2.85 4.99 7.21 3.11 11.42q-.3.67.43.83zm-18.23-1.23 5.4 5.65a.37.37 0 0 0 .52.01l4.9-4.68a4.53 3.99-43.7 0 0 .52-6.02l-.4-.41a4.53 3.99-43.7 0 0-6.03.24l-4.9 4.68a.37.37 0 0 0-.01.53z"/><path fill="#222a30" d="M95.29 400.37a.41.41 0 0 1 .58-.02l3.55 3.36a8.74 8.58 43.3 0 1 .48 12.23l-.6.64a8.74 8.58 43.3 0 1-12.25.25l-3.56-3.35a.41.41 0 0 1-.01-.58l11.81-12.53zm299.76 7.34a.37.37 0 0 1 .01-.53l4.9-4.68a4.53 3.99-43.7 0 1 6.03-.24l.4.41a4.53 3.99-43.7 0 1-.52 6.02l-4.9 4.68a.37.37 0 0 1-.52-.01l-5.4-5.65z"/><path fill="#fefffe" d="m379.23 442.54 12.81-8.88a.32.32 0 0 1 .44.08l2.96 4.28a.32.32 0 0 1-.08.44l-18.16 12.57a.32.32 0 0 1-.44-.08l-16.63-24.02a.32.32 0 0 1 .08-.44l17.98-12.44a.32.32 0 0 1 .44.08l2.99 4.24a.32.32 0 0 1-.08.44l-12.65 8.77a.32.32 0 0 0-.08.44l3.1 4.45a.32.32 0 0 0 .44.08l11.06-7.63a.32.32 0 0 1 .44.08l2.96 4.27a.32.32 0 0 1-.08.44l-11.05 7.66a.32.32 0 0 0-.08.44l3.19 4.65a.32.32 0 0 0 .44.08zm-239.195 1.5a15.91 15.49 28.7 0 1-21.394 5.947 15.91 15.49 28.7 0 1-6.516-21.227 15.91 15.49 28.7 0 1 21.394-5.947 15.91 15.49 28.7 0 1 6.516 21.227zm-18.493.588a9.41 9.01 118.9 0 0 12.436-3.884 9.41 9.01 118.9 0 0-3.34-12.592 9.41 9.01 118.9 0 0-12.436 3.884 9.41 9.01 118.9 0 0 3.34 12.592z"/><ellipse fill="#222a30" rx="9.41" ry="9.01" transform="rotate(118.9 -65.738 255.405)"/><path fill="#fefffe" d="M352.39 450.79 345 435.23a.3.3 0 0 1 .14-.4l5.31-2.54a.3.3 0 0 1 .4.14l12.5 26.46a.3.3 0 0 1-.14.4l-4.66 2.19a.3.3 0 0 1-.26-.01l-20.32-10.59a.3.3 0 0 0-.41.4l7.65 16.15a.3.3 0 0 1-.14.4l-5.31 2.5a.3.3 0 0 1-.4-.14l-12.49-26.45a.3.3 0 0 1 .14-.4l5.11-2.38a.3.3 0 0 1 .26.01l19.6 10.22a.3.3 0 0 0 .41-.4zm-185.92 14.18 1.17-2.82q.27-.66-.39-.93l-4.97-2.05q-.48-.19-.28-.67l1.79-4.26a.56.55-66.7 0 1 .72-.29l10.96 4.58q.5.2.29.7l-4.57 10.95q-.2.48-.71.63c-7.77 2.23-16.94-.26-21.09-7.49-5.78-10.09 2.69-23.98 14.45-22.91q9.26.84 14.2 8.67.52.82-.34 1.27l-4.33 2.27q-.77.4-1.11-.4-.54-1.29-1.57-2.31c-10.09-10.05-22.04 5.26-13.53 13.03q3.43 3.13 8.47 2.65.6-.06.84-.62z"/><rect width="6.58" height="29.86" x="-3.29" y="-14.93" fill="#fefffe" rx=".4" transform="rotate(-17.6 1651.987 -793.669)"/><path fill="#fefffe" d="m219.67 462.37-3.46 22.88a.32.32 0 0 1-.37.27l-5.87-.9a.32.32 0 0 1-.27-.37l3.49-22.86a.32.32 0 0 0-.27-.37l-8.33-1.3a.32.32 0 0 1-.26-.36l.78-5.31a.32.32 0 0 1 .37-.27l23.83 3.6a.32.32 0 0 1 .27.37l-.83 5.34a.32.32 0 0 1-.36.26l-8.35-1.25a.32.32 0 0 0-.37.27zm75.91 14.08-11.97 2.12a.35.35 0 0 0-.28.27l-1.45 6.59a.35.35 0 0 1-.28.27l-5.84 1.03a.35.35 0 0 1-.4-.43l7.21-31.07a.35.35 0 0 1 .28-.27l5.51-.98a.35.35 0 0 1 .36.15l17.42 26.78a.35.35 0 0 1-.24.54l-6.02 1a.35.35 0 0 1-.35-.16l-3.59-5.68a.35.35 0 0 0-.36-.16zm-10.8-4.43a.31.31 0 0 0 .36.37l6.89-1.22a.31.31 0 0 0 .21-.48l-4.94-7.78a.31.31 0 0 0-.57.1l-1.95 9.01zm-39.7 7.07.1 8.65q0 .24-.24.24l-6.17.01q-.23 0-.23-.22l-.07-29.08a.53.53 0 0 1 .52-.53q6.5-.11 13.23-.08c4.89.02 9.61 1.98 10.81 7.12 1.05 4.55-.37 9.39-4.65 11.4q-.39.19-.77.41-.51.31-.17.8l6.8 9.87a.13.13 0 0 1-.11.2l-7.17-.01q-.27 0-.42-.22l-5.84-8.66q-.44-.66-1.22-.64l-3.74.06q-.66.01-.66.68zm-.06-14.65.02 7.7a.44.44 0 0 0 .44.44l6.83-.01a4.45 4.1-.1 0 0 4.44-4.11v-.38a4.45 4.1-.1 0 0-4.46-4.09l-6.83.01a.44.44 0 0 0-.44.44z"/><path fill="#222a30" d="m284.78 472.02 1.95-9.01a.31.31 0 0 1 .57-.1l4.94 7.78a.31.31 0 0 1-.21.48l-6.89 1.22a.31.31 0 0 1-.36-.37zm-39.76-7.58a.44.44 0 0 1 .44-.44l6.83-.01a4.45 4.1-.1 0 1 4.46 4.09v.38a4.45 4.1-.1 0 1-4.44 4.11l-6.83.01a.44.44 0 0 1-.44-.44l-.02-7.7z"/></svg>